<?xml version="1.0" standalone="no"?>
<!DOCTYPE svg PUBLIC "-//W3C//DTD SVG 20010904//EN"
 "http://www.w3.org/TR/2001/REC-SVG-20010904/DTD/svg10.dtd">
<svg version="1.0" xmlns="http://www.w3.org/2000/svg"
 width="240.000000pt" height="240.000000pt" viewBox="0 0 240.000000 240.000000"
 preserveAspectRatio="xMidYMid meet">

<g transform="translate(0.000000,240.000000) scale(0.100000,-0.100000)"
fill="#000000" stroke="none">
<path d="M0 2391 c0 -15 29 -33 41 -26 8 5 9 -1 4 -24 -5 -22 -3 -31 6 -31 7
0 10 3 6 6 -3 4 3 14 15 24 20 16 17 47 -3 34 -5 -3 -15 -2 -22 4 -19 14 -47
22 -47 13z"/>
<path d="M276 2363 c9 -52 52 -154 75 -179 10 -11 19 -26 19 -33 0 -7 11 -22
25 -33 14 -11 25 -26 25 -34 0 -8 10 -14 25 -14 14 0 25 5 25 11 0 5 6 7 13 4
6 -4 3 1 -7 9 -13 11 -15 16 -6 16 9 0 8 6 -6 21 -19 22 -19 22 1 12 15 -8 23
-7 32 2 10 11 7 21 -11 48 -13 19 -27 44 -31 55 -3 12 -21 49 -39 84 l-32 63
-58 3 -57 3 7 -38z"/>
<path d="M863 2383 c-8 -22 5 -43 22 -37 9 4 14 12 11 19 -2 7 3 15 12 17 20
6 44 -1 38 -10 -2 -4 6 -8 19 -8 18 -1 22 2 18 15 -3 11 1 10 14 -5 24 -28 60
-47 68 -35 3 5 0 21 -7 36 -11 26 -13 26 -101 23 -62 -1 -91 -6 -94 -15z"/>
<path d="M1719 2388 c-6 -19 -4 -50 4 -55 6 -3 7 -1 3 5 -9 14 4 15 24 2 8 -5
10 -10 4 -10 -7 0 -14 -6 -17 -14 -4 -11 0 -13 16 -10 12 3 28 6 36 8 16 3 23
30 14 52 -3 9 -13 12 -23 9 -10 -3 -21 -1 -25 5 -5 9 -33 15 -36 8z"/>
<path d="M1924 2369 c-3 -6 -20 -9 -36 -7 -21 3 -32 0 -39 -14 -7 -14 -6 -18
6 -18 8 0 15 -5 15 -11 0 -5 4 -8 9 -5 15 9 51 -27 53 -54 3 -27 19 -50 30
-44 8 5 5 24 -9 49 -6 11 -10 41 -8 68 3 45 -6 60 -21 36z"/>
<path d="M620 2345 c0 -8 -8 -15 -17 -15 -20 0 -50 -17 -43 -23 3 -3 15 -8 27
-11 16 -5 23 -2 26 11 4 14 5 14 6 2 0 -8 20 -26 44 -39 31 -18 38 -19 28 -7
-15 19 -15 19 14 35 15 8 24 7 37 -4 12 -12 18 -12 24 -3 4 7 3 10 -4 5 -6 -3
-13 -2 -17 4 -6 10 -105 60 -118 60 -4 0 -7 -7 -7 -15z"/>
<path d="M840 2316 c0 -8 -5 -16 -11 -18 -12 -4 -1 -38 13 -38 7 0 6 5 -1 13
-14 18 -2 30 16 15 11 -9 12 -7 6 8 -6 17 -5 17 10 5 9 -7 17 -10 17 -6 0 9
-31 34 -42 35 -5 0 -8 -6 -8 -14z"/>
<path d="M2130 2239 c0 -11 5 -17 10 -14 6 3 10 13 10 21 0 8 -4 14 -10 14 -5
0 -10 -9 -10 -21z"/>
<path d="M1313 2193 c-4 -9 -1 -19 5 -21 7 -2 12 -11 12 -19 0 -13 -2 -13 -17
-2 -15 13 -15 12 -3 -11 l13 -25 13 30 c7 17 13 37 13 45 1 13 0 13 -9 0 -9
-13 -14 -7 -11 13 2 14 -10 7 -16 -10z"/>
<path d="M1425 2199 c-4 -6 -5 -12 -2 -15 2 -3 7 2 10 11 7 17 1 20 -8 4z"/>
<path d="M1361 2169 c-11 -20 -11 -21 4 -15 14 5 16 2 10 -11 -4 -10 -9 -36
-11 -58 -3 -33 -2 -35 5 -15 5 14 9 21 10 15 1 -10 41 59 41 71 0 3 -9 -4 -20
-17 l-19 -24 6 38 c6 41 -5 48 -26 16z"/>
<path d="M1270 2119 c0 -4 -6 -6 -13 -4 -6 3 -18 -5 -26 -17 -7 -13 -10 -20
-6 -16 9 8 27 -8 44 -40 7 -12 16 -20 22 -17 5 4 4 15 -3 28 -7 12 -13 30 -15
41 -3 16 -1 17 12 6 8 -7 15 -21 15 -31 0 -22 16 -33 26 -18 4 8 3 9 -4 5 -8
-5 -10 2 -6 21 4 23 1 30 -20 40 -15 6 -26 7 -26 2z m-10 -25 c0 -8 -5 -12
-10 -9 -6 4 -8 11 -5 16 9 14 15 11 15 -7z"/>
<path d="M1434 2121 c4 -5 1 -11 -6 -13 -8 -3 -8 -9 1 -24 10 -15 11 -15 7 -1
-3 9 -1 17 4 17 6 0 10 -8 10 -17 0 -15 2 -16 10 -3 13 20 13 33 0 25 -5 -3
-10 1 -10 9 0 9 -5 16 -11 16 -5 0 -8 -4 -5 -9z"/>
<path d="M1502 2100 c-6 -11 -12 -22 -12 -25 0 -11 20 6 30 26 14 25 -2 25
-18 -1z"/>
<path d="M1024 2102 c4 -7 15 -12 24 -13 32 -1 87 -24 87 -36 0 -7 3 -13 8
-13 4 0 9 0 12 0 3 0 -2 11 -10 24 -10 14 -29 26 -48 29 -18 3 -43 8 -56 13
-17 5 -22 4 -17 -4z"/>
<path d="M1550 2099 c0 -5 5 -7 10 -4 6 3 10 8 10 11 0 2 -4 4 -10 4 -5 0 -10
-5 -10 -11z"/>
<path d="M1025 2070 c4 -6 11 -8 16 -5 14 9 11 15 -7 15 -8 0 -12 -5 -9 -10z"/>
<path d="M1510 2058 c-12 -22 -12 -22 6 -6 10 10 15 20 12 24 -4 3 -12 -5 -18
-18z"/>
<path d="M1095 2050 c3 -5 8 -10 11 -10 2 0 4 5 4 10 0 6 -5 10 -11 10 -5 0
-7 -4 -4 -10z"/>
<path d="M1240 2040 c0 -5 5 -10 11 -10 5 0 7 5 4 10 -3 6 -8 10 -11 10 -2 0
-4 -4 -4 -10z"/>
<path d="M1426 2027 c3 -10 9 -15 12 -12 3 3 0 11 -7 18 -10 9 -11 8 -5 -6z"/>
<path d="M1105 2011 c-3 -5 -1 -12 5 -16 5 -3 10 1 10 9 0 18 -6 21 -15 7z"/>
<path d="M1354 1996 c0 -13 4 -22 9 -19 10 6 9 31 -2 37 -5 3 -8 -5 -7 -18z"/>
<path d="M1475 1991 c-3 -5 -1 -12 5 -16 5 -3 10 1 10 9 0 18 -6 21 -15 7z"/>
<path d="M1175 1970 c3 -5 8 -10 11 -10 2 0 4 5 4 10 0 6 -5 10 -11 10 -5 0
-7 -4 -4 -10z"/>
<path d="M1429 1923 c-13 -16 -12 -17 4 -4 9 7 17 15 17 17 0 8 -8 3 -21 -13z"/>
<path d="M1548 1933 c7 -3 16 -2 19 1 4 3 -2 6 -13 5 -11 0 -14 -3 -6 -6z"/>
<path d="M1537 1913 c-4 -3 -7 -11 -7 -17 0 -6 5 -5 12 2 6 6 9 14 7 17 -3 3
-9 2 -12 -2z"/>
<path d="M1375 1880 c-3 -5 -1 -10 4 -10 6 0 11 5 11 10 0 6 -2 10 -4 10 -3 0
-8 -4 -11 -10z"/>
<path d="M1475 1870 c-3 -5 -2 -10 4 -10 5 0 13 5 16 10 3 6 2 10 -4 10 -5 0
-13 -4 -16 -10z"/>
<path d="M212 1841 c-10 -6 -8 -10 10 -14 41 -12 55 -8 34 8 -23 17 -26 18
-44 6z"/>
<path d="M13 1805 c21 -15 22 -35 2 -35 -16 0 -19 -20 -9 -57 5 -19 9 -21 26
-12 11 6 17 13 14 16 -3 4 -2 11 3 17 5 6 6 25 4 43 -4 24 -11 32 -31 36 -24
5 -25 4 -9 -8z"/>
<path d="M183 1813 c11 -10 -13 -32 -29 -26 -8 3 -21 -3 -29 -13 -12 -17 -11
-21 6 -37 15 -14 25 -16 51 -8 l33 9 -33 1 c-38 1 -34 21 4 21 15 0 24 6 24
15 0 8 8 15 18 15 13 1 11 4 -8 15 -26 15 -48 20 -37 8z"/>
<path d="M372 1788 c-12 -12 -22 -17 -22 -10 0 7 -4 12 -10 12 -15 0 -12 -17
4 -23 8 -3 26 5 41 19 14 13 22 24 18 24 -5 0 -19 -10 -31 -22z"/>
<path d="M2180 1790 c0 -6 7 -10 15 -10 8 0 15 2 15 4 0 2 -7 6 -15 10 -8 3
-15 1 -15 -4z"/>
<path d="M84 1728 c-4 -7 -2 -8 4 -4 7 4 12 2 12 -3 0 -6 7 -11 15 -11 10 0
12 -6 8 -17 -6 -16 -5 -16 10 -4 29 24 26 8 -4 -21 -16 -15 -29 -23 -29 -18 0
5 -6 7 -13 4 -16 -6 -17 -44 -1 -44 6 0 17 7 24 15 7 8 17 15 23 15 10 0 -25
-34 -53 -51 -13 -8 -12 -11 4 -24 22 -17 56 -20 56 -5 0 6 10 10 23 11 20 1
19 2 -8 15 -27 13 -27 14 -5 10 14 -2 34 0 45 4 11 5 14 9 7 9 -7 1 -10 6 -6
13 5 8 1 9 -12 5 -18 -7 -18 -7 0 8 11 8 16 15 10 15 -5 0 -2 4 6 10 8 5 12
12 8 15 -3 4 -15 -4 -27 -16 -11 -12 -24 -19 -28 -16 -3 4 -1 7 6 7 7 0 9 5 6
10 -4 6 -2 16 3 23 8 9 -1 18 -33 34 -30 15 -47 18 -51 11z"/>
<path d="M356 1731 c-4 -5 3 -7 14 -4 23 6 26 13 6 13 -8 0 -17 -4 -20 -9z"/>
<path d="M322 1692 c-7 -5 -10 -16 -6 -26 6 -15 7 -15 20 1 22 30 15 43 -14
25z"/>
<path d="M405 1660 c-3 -5 -2 -10 4 -10 5 0 13 5 16 10 3 6 2 10 -4 10 -5 0
-13 -4 -16 -10z"/>
<path d="M485 1660 c-3 -5 1 -10 10 -10 9 0 13 5 10 10 -3 6 -8 10 -10 10 -2
0 -7 -4 -10 -10z"/>
<path d="M388 1633 c6 -2 10 -9 7 -14 -3 -5 -15 -3 -26 4 -18 10 -23 8 -43
-15 -21 -27 -30 -68 -14 -68 4 0 8 11 8 23 0 13 8 31 18 40 20 19 33 22 30 8
-5 -16 7 -16 30 0 20 14 21 17 7 23 -9 3 -20 6 -23 5 -4 0 -1 -3 6 -6z"/>
<path d="M251 1608 c-1 -23 15 -32 23 -12 3 8 2 13 -3 9 -5 -3 -12 1 -14 7 -4
8 -6 7 -6 -4z"/>
<path d="M550 1610 c0 -6 7 -10 15 -10 8 0 15 2 15 4 0 2 -7 6 -15 10 -8 3
-15 1 -15 -4z"/>
<path d="M2310 1613 c0 -16 54 -53 77 -53 11 1 5 6 -16 16 -19 8 -40 22 -47
32 -7 9 -14 12 -14 5z"/>
<path d="M481 1598 c-19 -5 -44 -16 -55 -24 -27 -18 -16 -18 20 1 16 8 41 15
57 15 15 0 27 5 27 10 0 12 -3 12 -49 -2z"/>
<path d="M950 1590 c-17 -11 -13 -15 20 -24 23 -7 24 -6 7 7 -14 11 -15 16 -5
20 7 3 9 6 3 6 -5 0 -17 -3 -25 -9z"/>
<path d="M1731 1579 c-19 -11 -45 -19 -57 -16 -20 3 -22 1 -13 -14 12 -23 17
-24 -70 6 -73 24 -131 26 -157 4 -17 -14 -86 -30 -79 -18 14 21 -136 30 -174
10 -12 -7 -26 -9 -31 -6 -5 3 -11 1 -14 -4 -7 -10 -91 -9 -102 2 -11 11 -26 9
-19 -3 3 -5 2 -10 -4 -10 -5 0 -11 4 -13 9 -5 13 -78 24 -78 11 0 -6 4 -9 9
-6 5 3 12 -1 15 -10 5 -13 2 -15 -14 -11 -22 6 -27 -12 -9 -30 8 -8 6 -11 -6
-10 -24 3 -29 -17 -11 -36 14 -13 14 -18 0 -47 -9 -17 -13 -34 -10 -38 4 -3 9
4 13 16 3 15 13 22 29 22 28 0 30 8 7 27 -11 9 -12 12 -3 7 8 -4 23 -14 33
-22 15 -14 17 -13 18 4 1 10 0 23 -1 29 -1 5 2 7 6 3 4 -4 13 -3 20 3 7 6 19
7 26 3 7 -5 20 -9 28 -9 36 -2 89 -18 84 -26 -3 -5 2 -9 11 -9 10 0 13 5 9 12
-5 8 -2 9 9 5 10 -4 25 -10 35 -13 14 -5 15 -4 2 5 -15 10 -12 11 58 11 4 0 8
-4 8 -10 3 -24 6 -24 24 -1 11 13 20 18 20 12 0 -7 14 -9 37 -6 23 3 40 0 45
-8 5 -8 8 -6 8 8 1 18 2 18 10 -2 5 -13 16 -23 25 -23 13 0 14 4 5 20 -10 18
-8 20 30 20 23 0 39 -4 35 -9 -3 -6 13 -8 37 -7 23 2 44 9 46 15 2 6 13 11 23
11 11 0 18 4 15 9 -3 5 5 11 18 13 18 4 23 1 19 -10 -5 -11 0 -10 22 4 l28 18
-8 -23 c-5 -16 -4 -21 4 -17 6 4 11 1 11 -6 0 -9 2 -10 8 -2 5 9 10 8 19 -1
10 -10 9 -16 -2 -25 -11 -9 -12 -16 -2 -31 6 -10 16 -19 21 -19 5 0 1 9 -8 19
-16 18 -16 20 0 29 13 7 14 13 6 28 -9 15 -7 21 11 31 l22 12 -23 1 c-21 0
-22 1 -8 16 9 8 16 23 17 32 0 9 2 27 3 39 2 15 -2 19 -12 15 -10 -3 -13 -1
-8 6 11 19 -16 14 -53 -9z m39 -13 c0 -2 -7 -6 -15 -10 -8 -3 -15 -1 -15 4 0
6 7 10 15 10 8 0 15 -2 15 -4z m-846 -107 c-6 -11 -24 -2 -24 11 0 5 7 7 15 4
8 -4 12 -10 9 -15z"/>
<path d="M0 1527 c0 -30 5 -40 22 -47 l23 -9 -22 0 c-13 -1 -23 -5 -23 -10 0
-11 38 -2 46 10 3 5 22 9 42 9 28 0 33 3 22 10 -12 7 -12 10 -1 10 8 0 11 6 7
16 -3 8 -2 12 3 9 5 -3 12 -1 16 5 4 6 -4 10 -19 10 -14 0 -27 4 -30 9 -3 5
-24 11 -46 13 l-40 4 0 -39z"/>
<path d="M343 1544 c-13 -14 -18 -24 -11 -22 10 4 45 48 37 48 -2 0 -14 -12
-26 -26z"/>
<path d="M2300 1536 c0 -2 7 -9 15 -16 13 -11 14 -10 9 4 -5 14 -24 23 -24 12z"/>
<path d="M394 1509 c-19 -22 -19 -22 4 -8 12 8 22 17 22 21 0 12 -6 9 -26 -13z"/>
<path d="M149 1493 c-13 -16 -12 -17 4 -4 9 7 17 15 17 17 0 8 -8 3 -21 -13z"/>
<path d="M2160 1499 c0 -5 5 -7 10 -4 6 3 10 8 10 11 0 2 -4 4 -10 4 -5 0 -10
-5 -10 -11z"/>
<path d="M338 1465 c-17 -23 -17 -24 3 -30 24 -8 39 2 21 14 -7 4 -10 15 -6
24 9 24 2 21 -18 -8z"/>
<path d="M383 1472 c-8 -5 -9 -13 -3 -22 6 -8 10 -13 11 -10 0 3 2 13 4 23 4
19 4 19 -12 9z"/>
<path d="M2318 1473 c7 -3 16 -2 19 1 4 3 -2 6 -13 5 -11 0 -14 -3 -6 -6z"/>
<path d="M220 1445 c0 -8 -11 -17 -25 -21 -26 -6 -56 -44 -35 -44 5 0 10 5 10
10 0 6 9 10 20 10 11 0 20 4 20 8 0 5 7 9 15 9 26 0 25 -26 -2 -47 -25 -19
-37 -23 -78 -22 -17 1 -17 0 -2 -4 22 -7 22 -13 -5 -41 -15 -16 -17 -22 -7
-18 9 3 22 17 29 31 7 13 15 22 18 19 2 -2 17 2 33 10 34 18 47 19 31 3 -7 -7
-12 -16 -12 -22 0 -5 6 -1 14 9 8 11 12 23 10 27 -2 4 0 10 6 13 8 5 7 11 -1
21 -6 7 -9 21 -5 29 3 9 0 15 -10 15 -8 0 -12 5 -9 10 3 6 1 10 -4 10 -6 0
-11 -7 -11 -15z"/>
<path d="M13 1443 c-18 -7 -16 -30 2 -37 8 -3 15 -10 15 -15 0 -6 -7 -8 -15
-5 -8 4 -15 1 -15 -5 0 -20 21 -11 55 23 26 27 30 36 18 40 -17 7 -43 7 -60
-1z m47 -17 c0 -2 -7 -7 -16 -10 -8 -3 -12 -2 -9 4 6 10 25 14 25 6z"/>
<path d="M2330 1446 c0 -2 9 -6 20 -9 11 -3 18 -1 14 4 -5 9 -34 13 -34 5z"/>
<path d="M272 1428 c-19 -19 -14 -29 8 -16 20 13 27 28 12 28 -4 0 -13 -5 -20
-12z"/>
<path d="M425 1430 c-3 -5 -2 -10 4 -10 5 0 13 5 16 10 3 6 2 10 -4 10 -5 0
-13 -4 -16 -10z"/>
<path d="M367 1409 c-3 -12 -10 -18 -16 -14 -6 3 -11 1 -11 -4 0 -18 29 -12
40 8 12 24 13 31 1 31 -5 0 -11 -9 -14 -21z"/>
<path d="M1825 1420 c3 -5 8 -10 11 -10 2 0 4 5 4 10 0 6 -5 10 -11 10 -5 0
-7 -4 -4 -10z"/>
<path d="M310 1390 c-12 -16 -19 -30 -16 -30 2 0 14 14 26 30 12 17 19 30 16
30 -2 0 -14 -13 -26 -30z"/>
<path d="M519 1383 c-12 -14 -12 -16 0 -8 11 6 13 4 8 -9 -4 -9 -3 -15 2 -11
6 3 9 14 8 25 -2 24 -1 24 -18 3z"/>
<path d="M946 1383 c5 -5 12 -12 16 -18 4 -6 8 -2 8 8 0 9 -7 17 -17 17 -9 0
-12 -3 -7 -7z"/>
<path d="M2348 1383 c6 -2 18 -2 25 0 6 3 1 5 -13 5 -14 0 -19 -2 -12 -5z"/>
<path d="M2225 1356 c10 -14 22 -26 27 -26 5 0 7 -4 4 -9 -4 -5 6 -7 21 -5 49
8 62 6 94 -17 19 -13 30 -17 27 -9 -2 7 -19 21 -37 31 -17 9 -28 19 -24 21 4
3 1 3 -7 0 -37 -11 -57 -8 -89 16 l-33 25 17 -27z"/>
<path d="M475 1361 c-3 -6 -11 -9 -16 -6 -5 4 -9 1 -9 -4 0 -6 6 -11 14 -11
16 0 31 18 23 26 -3 3 -8 0 -12 -5z"/>
<path d="M2007 1359 c7 -7 15 -10 18 -7 3 3 -2 9 -12 12 -14 6 -15 5 -6 -5z"/>
<path d="M976 1352 c-3 -5 -20 -7 -38 -4 -32 4 -32 4 -13 -13 13 -10 14 -15 5
-12 -20 6 -36 -13 -34 -40 2 -30 48 -74 70 -66 12 4 15 3 10 -5 -4 -7 -17 -12
-29 -13 -12 0 -31 -5 -42 -10 -15 -7 -11 -8 18 -5 36 5 37 4 19 -12 -10 -9
-13 -13 -6 -9 7 4 15 3 19 -3 3 -5 -1 -13 -9 -16 -9 -3 -16 -11 -16 -16 0 -6
7 -7 16 -4 12 5 15 2 10 -10 -3 -8 -6 -18 -6 -20 0 -3 -6 -2 -12 2 -7 4 -9 3
-5 -2 4 -4 18 -9 29 -9 12 0 23 -7 25 -15 4 -12 2 -12 -5 -2 -7 10 -11 10 -22
-3 -10 -12 -10 -15 4 -15 9 0 16 -5 16 -11 0 -5 -4 -8 -8 -5 -5 3 -9 -1 -9 -8
0 -8 6 -12 12 -9 16 5 47 -25 39 -38 -3 -6 -12 -8 -20 -5 -8 3 -11 0 -7 -10 3
-9 -1 -14 -13 -14 -15 0 -16 -2 -5 -9 7 -5 11 -13 7 -19 -3 -5 1 -12 9 -16 8
-3 15 -10 15 -16 0 -6 -5 -8 -12 -4 -7 4 -8 3 -4 -5 5 -8 13 -7 29 4 28 20 34
19 42 -5 8 -24 21 -26 29 -4 3 8 2 13 -3 10 -5 -3 -12 1 -15 10 -4 11 -1 14
13 9 21 -6 49 19 31 30 -8 5 -8 11 1 21 6 8 8 14 4 14 -4 0 -3 6 2 13 6 6 9
20 8 30 -4 20 6 22 23 5 9 -9 12 -7 12 10 0 12 3 22 8 22 4 0 7 38 7 85 0 47
-2 80 -3 75 -2 -6 -15 0 -28 13 -13 14 -38 27 -55 31 -22 4 -30 10 -26 21 4 9
-5 21 -23 32 -17 9 -30 21 -30 26 0 5 -7 6 -16 3 -12 -4 -15 -2 -10 9 6 16 1
21 -8 7z m34 -41 c0 -12 -20 -25 -27 -18 -7 7 6 27 18 27 5 0 9 -4 9 -9z m-85
-11 c3 -5 1 -10 -4 -10 -6 0 -11 5 -11 10 0 6 2 10 4 10 3 0 8 -4 11 -10z
m125 -12 c11 -4 10 -7 -8 -17 -29 -16 -45 -6 -30 19 7 11 15 16 18 11 3 -4 12
-10 20 -13z m-90 -2 c0 -3 -4 -8 -10 -11 -5 -3 -10 -1 -10 4 0 6 5 11 10 11 6
0 10 -2 10 -4z m101 -39 c-1 -12 -15 -9 -19 4 -3 6 1 10 8 8 6 -3 11 -8 11
-12z m-67 -62 c-4 -8 -8 -15 -10 -15 -2 0 -4 7 -4 15 0 8 4 15 10 15 5 0 7 -7
4 -15z m26 -149 c0 -11 -19 -15 -25 -6 -3 5 1 10 9 10 9 0 16 -2 16 -4z m7
-82 c-3 -3 -12 -4 -19 -1 -8 3 -5 6 6 6 11 1 17 -2 13 -5z m50 -26 c-3 -8 -6
-5 -6 6 -1 11 2 17 5 13 3 -3 4 -12 1 -19z m-42 2 c-3 -5 0 -10 7 -10 9 0 9
-3 -2 -10 -8 -5 -19 -10 -25 -10 -5 0 -3 5 5 10 13 9 13 10 0 10 -13 0 -13 1
0 10 19 12 23 12 15 0z"/>
<path d="M90 1335 c-19 -22 -8 -25 13 -3 9 10 13 18 8 18 -5 0 -14 -7 -21 -15z"/>
<path d="M327 1339 c-9 -6 -22 -7 -27 -4 -6 3 -10 2 -10 -4 0 -5 8 -12 18 -14
16 -4 16 -5 0 -6 -10 0 -18 -5 -18 -11 0 -17 15 -11 40 15 26 27 25 39 -3 24z"/>
<path d="M1765 1340 c-3 -5 -13 -6 -23 -3 -9 3 -14 2 -10 -2 11 -11 68 -14 68
-3 0 5 5 6 12 2 7 -4 8 -3 4 4 -9 14 -43 16 -51 2z"/>
<path d="M190 1314 c-17 -9 -20 -14 -9 -14 9 0 22 7 29 15 15 18 13 18 -20 -1z"/>
<path d="M264 1321 c3 -5 -1 -11 -9 -15 -8 -3 -15 -10 -15 -16 0 -6 7 -5 20 2
21 14 27 38 9 38 -5 0 -8 -4 -5 -9z"/>
<path d="M505 1320 c-4 -6 -11 -7 -17 -4 -7 4 -8 2 -4 -5 6 -9 11 -9 22 0 14
11 18 19 10 19 -3 0 -8 -5 -11 -10z"/>
<path d="M1667 1314 c6 -15 23 -19 23 -5 0 5 -7 11 -14 14 -10 4 -13 1 -9 -9z"/>
<path d="M416 1305 c-3 -9 0 -15 8 -15 8 0 16 -6 19 -12 2 -7 7 -11 10 -8 3 3
-3 15 -13 27 -14 18 -19 20 -24 8z"/>
<path d="M450 1310 c0 -5 5 -10 10 -10 6 0 10 5 10 10 0 6 -4 10 -10 10 -5 0
-10 -4 -10 -10z"/>
<path d="M1725 1309 c-4 -5 2 -6 11 -2 11 4 15 3 10 -5 -4 -7 3 -9 21 -7 16 2
22 2 16 -1 -7 -3 -13 -13 -13 -22 0 -15 -2 -15 -10 -2 -5 8 -10 10 -10 5 0
-12 -46 -12 -57 0 -5 4 -1 5 7 0 9 -5 12 -5 7 1 -12 13 -30 12 -42 -4 -12 -15
-48 -6 -39 10 4 6 -4 8 -17 6 -26 -3 -27 -13 -16 -168 5 -79 6 -80 20 -77 8 1
13 -16 14 -58 2 -52 6 -87 13 -105 1 -3 2 -8 1 -12 0 -5 3 -8 9 -8 5 0 10 -7
10 -15 0 -8 -5 -15 -11 -15 -7 0 -9 -9 -6 -21 5 -17 3 -18 -9 -8 -13 10 -13 8
-4 -15 5 -15 10 -35 10 -44 0 -13 -5 -12 -21 8 -12 15 -19 19 -18 10 1 -8 1
-33 -1 -55 -1 -32 -3 -36 -10 -20 -8 19 -9 19 -16 -4 l-7 -25 -9 24 c-8 21
-12 22 -61 16 -75 -10 -107 -14 -149 -15 -20 0 -43 -8 -52 -16 -19 -19 -24
-19 -29 3 -4 13 -5 13 -6 -4 0 -12 -8 -27 -16 -34 -13 -11 -19 -8 -17 11 1 3
-5 6 -13 6 -8 0 -12 -4 -9 -9 3 -4 0 -8 -7 -8 -8 0 -7 -5 2 -17 12 -16 12 -17
-2 -6 -9 7 -19 10 -22 6 -4 -3 -7 -2 -7 3 0 6 5 15 11 21 8 8 8 13 0 17 -6 4
-11 2 -11 -3 0 -6 -4 -11 -10 -11 -5 0 -7 7 -4 15 4 9 1 15 -7 15 -10 0 -10 3
-1 12 10 10 15 10 21 -1 6 -9 10 -4 13 18 4 26 1 31 -16 30 -12 0 -15 -3 -8
-6 6 -2 12 -9 12 -14 0 -16 -19 -10 -40 14 -16 16 -19 17 -15 5 4 -11 2 -18
-4 -18 -17 0 -13 -21 7 -37 9 -7 13 -13 7 -12 -25 3 -26 -2 -4 -22 23 -19 23
-20 2 -10 -14 7 -24 8 -28 1 -3 -5 1 -10 9 -10 9 0 16 -4 16 -10 0 -5 9 -18
21 -29 15 -14 17 -21 8 -26 -8 -5 -10 -4 -5 3 13 21 -12 13 -27 -9 l-15 -21
-7 21 c-3 11 -16 23 -27 27 -12 4 -29 16 -39 27 -15 19 -20 20 -45 9 -25 -11
-27 -10 -12 1 10 8 14 18 10 22 -4 5 0 5 8 1 8 -4 6 0 -4 8 -20 16 -20 16 0
18 10 0 25 1 31 1 7 -1 10 3 7 8 -3 5 -19 9 -35 9 -17 0 -28 4 -25 9 3 5 0 11
-8 14 -16 6 -42 -45 -32 -61 3 -6 -2 -8 -14 -5 -13 4 -20 0 -20 -9 0 -9 9 -14
23 -14 14 1 22 -4 21 -15 -1 -13 6 -16 30 -13 17 2 24 1 16 -3 -8 -3 -23 -12
-32 -21 -12 -10 -18 -11 -18 -3 0 9 -5 9 -21 1 -11 -7 -23 -9 -27 -6 -3 3 0 6
6 6 6 0 9 6 6 14 -3 9 3 17 16 21 12 4 19 9 17 12 -3 2 -14 0 -25 -6 -13 -7
-22 -7 -31 2 -10 9 -12 9 -11 -3 5 -31 -1 -47 -15 -47 -8 0 -15 5 -15 11 0 6
-5 5 -12 -2 -14 -14 -38 -16 -38 -2 0 5 6 7 13 4 18 -6 41 21 31 37 -5 9 -2
10 11 5 14 -5 16 -4 7 7 -7 8 -8 17 -4 22 4 4 -6 0 -21 -10 -15 -10 -32 -26
-38 -36 -5 -11 -15 -19 -22 -19 -8 0 -6 4 3 10 13 9 13 11 0 20 -9 6 -18 6
-24 0 -6 -6 -14 -10 -20 -10 -5 0 3 14 20 32 16 18 22 27 14 21 -18 -14 -72
-5 -67 11 2 6 13 10 23 8 14 -2 15 0 6 6 -17 11 -62 3 -68 -12 -3 -7 -17 -12
-32 -11 -15 0 -36 -9 -47 -20 -11 -12 -17 -16 -12 -11 12 17 8 28 -9 22 -8 -3
-12 -2 -9 4 3 6 1 10 -6 10 -7 0 0 13 16 30 15 16 31 29 34 28 28 -3 33 4 13
18 -21 15 -48 11 -37 -6 3 -4 -4 -10 -15 -13 -11 -3 -20 -1 -20 4 0 5 -24 0
-53 -11 -50 -19 -51 -19 -27 0 14 10 25 22 25 27 1 11 24 50 25 40 0 -4 12 0
27 9 22 13 21 10 -7 -14 -38 -33 -37 -52 2 -31 12 7 26 12 30 11 4 -1 5 4 2
12 -3 7 2 16 10 19 11 4 16 1 16 -10 0 -25 19 -3 24 27 2 14 8 24 14 23 5 -1
8 7 5 18 -6 20 -6 20 -16 3 -16 -28 -37 -48 -37 -34 0 6 -5 8 -12 4 -8 -5 -9
-1 -5 12 7 18 6 18 -9 -1 -9 -11 -14 -14 -12 -6 2 8 15 21 28 30 14 10 21 11
16 4 -4 -7 -2 -13 3 -13 15 0 14 13 -2 29 -7 8 -7 11 -1 8 7 -4 17 0 24 8 7 8
17 12 23 8 5 -3 7 -1 3 5 -3 6 -2 13 4 17 5 3 10 12 10 18 0 7 -9 1 -20 -13
-16 -21 -20 -22 -20 -7 0 10 -5 15 -11 12 -6 -4 -8 -13 -5 -21 4 -10 0 -14
-11 -12 -10 2 -23 -8 -31 -22 l-14 -25 7 30 6 29 -23 -19 -23 -20 19 23 c11
12 20 32 21 45 1 14 8 22 21 22 12 0 21 9 24 26 11 55 79 102 94 63 6 -16 36
-19 36 -4 0 5 -7 7 -16 3 -12 -4 -14 0 -8 21 7 29 -6 35 -26 11 -7 -8 -16 -12
-21 -9 -17 10 -47 -16 -63 -56 -9 -23 -20 -39 -25 -35 -5 3 -16 -2 -25 -10
-19 -20 -31 -2 -16 25 13 25 22 26 13 3 -4 -12 5 -8 26 11 20 20 28 33 21 40
-6 6 -17 3 -30 -9 -16 -14 -23 -16 -32 -7 -15 15 -32 16 -23 2 8 -14 -14 -42
-27 -34 -5 3 -1 12 9 20 10 7 13 14 6 14 -17 0 -4 37 15 44 10 3 29 15 44 27
37 30 43 21 13 -16 -18 -21 -23 -24 -18 -10 6 18 5 18 -10 6 -18 -14 -22 -37
-9 -45 11 -7 82 41 82 55 0 6 -5 7 -12 3 -7 -4 -8 -3 -4 5 4 6 12 9 17 6 5 -4
9 -1 9 5 0 6 5 8 12 4 7 -5 9 -2 5 9 -3 9 0 18 9 21 22 8 16 21 -11 22 -15 1
-26 -5 -30 -15 -3 -9 -19 -22 -37 -29 -41 -15 -48 -8 -11 12 15 8 24 15 19 16
-5 0 -3 7 4 15 10 12 9 15 -4 15 -10 0 -15 -4 -12 -8 2 -4 1 -14 -5 -22 -6
-10 -9 -11 -9 -2 0 6 -7 12 -16 12 -9 0 -12 -5 -8 -12 4 -6 3 -8 -4 -4 -6 3
-20 -7 -31 -23 -26 -36 -27 -48 -3 -30 14 11 13 10 -2 -9 -11 -12 -15 -22 -10
-22 5 0 5 -4 -1 -8 -5 -4 -17 -16 -25 -27 -14 -19 -14 -19 4 -5 17 13 19 13
14 0 -3 -8 -1 -23 3 -32 7 -13 4 -20 -10 -28 -11 -5 -26 -10 -33 -9 -7 0 -3 4
10 9 12 5 22 14 22 21 0 6 -7 9 -15 6 -8 -4 -17 -2 -20 3 -6 10 15 60 25 60 4
0 10 14 12 30 6 38 -7 39 -20 1 -11 -30 -92 -118 -92 -98 1 7 19 30 40 52 44
44 50 60 21 52 -15 -3 -18 0 -17 17 3 27 28 66 42 66 6 0 10 16 9 38 -1 20 2
45 8 56 6 13 6 16 -2 12 -6 -4 -11 -3 -11 3 0 6 -6 8 -13 5 -8 -3 -19 5 -25
18 l-12 23 6 -24 c4 -16 3 -21 -5 -17 -6 4 -9 2 -5 -7 3 -8 -1 -14 -9 -14 -9
0 -13 8 -9 21 4 19 3 19 -9 5 -19 -23 -69 -31 -61 -11 3 10 1 13 -7 8 -6 -4
-19 -2 -27 5 -12 10 -16 9 -21 -9 -3 -12 -14 -24 -24 -27 -10 -4 -19 -11 -19
-16 0 -5 -7 -9 -15 -9 -8 0 -15 -6 -15 -13 0 -8 7 -14 15 -14 8 0 13 2 10 5
-6 6 16 27 38 35 11 4 17 2 17 -9 0 -8 -7 -17 -15 -20 -9 -4 -21 -16 -27 -28
-11 -20 -10 -20 8 -6 18 14 18 14 5 -3 -11 -14 -23 -17 -45 -14 -17 3 -25 3
-18 0 15 -6 16 -29 0 -39 -6 -4 -8 -3 -4 4 4 7 -2 10 -15 9 -12 -1 -25 -11
-30 -24 -8 -21 -27 -29 -54 -23 -5 1 -7 -2 -2 -6 4 -4 0 -16 -10 -26 -9 -10
-12 -18 -6 -18 5 0 18 9 28 20 10 11 29 20 43 20 17 0 23 4 19 15 -4 8 -1 17
5 21 6 4 8 3 4 -4 -9 -15 15 -21 39 -10 20 9 20 9 0 -7 -17 -14 -18 -17 -5
-25 8 -5 19 -10 23 -10 5 0 2 -7 -6 -14 -8 -8 -38 -17 -67 -20 -58 -5 -97 -33
-74 -53 6 -7 15 -9 18 -6 3 4 6 1 6 -6 0 -6 -8 -11 -17 -9 -15 2 -19 -6 -21
-46 -3 -44 -2 -48 13 -36 8 7 18 10 22 6 3 -3 1 -6 -5 -6 -7 0 -9 -7 -5 -17 5
-12 2 -15 -10 -10 -14 5 -17 0 -17 -28 0 -29 3 -33 18 -28 14 6 15 4 5 -9 -7
-8 -9 -19 -5 -23 4 -5 1 -5 -5 -1 -10 5 -13 -9 -13 -59 0 -36 4 -64 8 -61 4 2
14 1 22 -5 12 -7 10 -9 -7 -9 -18 0 -23 -6 -23 -24 0 -15 7 -26 17 -29 17 -4
17 -5 0 -6 -15 -1 -17 -12 -15 -100 2 -93 3 -98 23 -93 20 4 20 4 0 -11 -19
-15 -30 -67 -13 -67 5 0 6 -6 1 -12 -11 -18 -14 -148 -3 -148 4 0 10 6 13 13
3 6 4 2 4 -9 -1 -14 -6 -20 -14 -17 -8 3 -13 -3 -13 -16 0 -14 5 -19 15 -15
11 5 13 2 9 -10 -3 -9 -10 -13 -15 -10 -5 3 -9 0 -9 -5 0 -19 28 -12 44 11 9
12 16 20 17 18 0 -3 2 -14 4 -24 2 -11 -1 -28 -6 -38 -8 -15 -6 -18 12 -18 16
0 20 4 15 17 -6 16 -5 16 11 1 24 -21 70 -15 94 13 10 12 17 24 14 27 -2 3
-13 -6 -23 -18 -12 -15 -25 -21 -35 -17 -22 8 -11 36 19 48 30 11 32 33 3 26
-13 -3 -19 -1 -16 6 3 7 10 11 16 9 6 -1 14 5 17 13 4 8 11 15 16 15 6 0 4 -7
-3 -16 -11 -14 -11 -18 4 -29 9 -6 15 -15 12 -18 -3 -4 -2 -5 2 -2 15 12 11
34 -5 28 -14 -5 -15 -3 -5 7 7 8 20 15 28 16 23 3 14 -56 -12 -86 -13 -14 -23
-29 -23 -33 0 -5 13 5 30 23 16 18 27 37 23 43 -3 6 -1 7 5 3 6 -4 25 0 42 9
41 21 38 27 -4 10 -22 -10 -37 -11 -41 -5 -3 6 -2 10 3 10 6 0 8 8 5 18 -3 12
7 31 29 52 24 24 27 32 13 27 -12 -5 -7 3 13 18 17 15 32 32 32 38 0 8 -3 8
-9 -1 -7 -11 -9 -10 -15 3 -3 9 4 29 17 46 l22 31 -24 19 c-24 19 -18 26 9 9
9 -6 17 -5 21 2 4 7 9 7 13 -1 4 -6 2 -11 -3 -11 -8 0 -7 -6 1 -19 9 -15 9
-23 -1 -38 -8 -10 0 -3 18 15 17 17 35 32 40 32 5 0 12 7 15 16 5 13 4 14 -7
6 -8 -7 -17 -9 -20 -5 -4 3 -7 0 -7 -7 0 -9 -6 -7 -18 6 -14 14 -16 23 -8 36
5 9 13 15 16 13 9 -6 35 13 28 20 -3 4 -17 1 -30 -6 -12 -7 -26 -12 -30 -11
-4 1 -5 -5 -2 -13 5 -12 -2 -15 -30 -15 -27 0 -34 3 -30 15 4 8 1 15 -5 15 -6
0 -11 -4 -11 -10 0 -5 -7 -10 -15 -10 -8 0 -15 -5 -15 -11 0 -6 7 -9 15 -5 9
3 15 0 15 -8 0 -13 27 -31 43 -28 12 3 8 -8 -8 -24 -13 -14 -15 -14 -15 0 0
20 -36 21 -44 1 -3 -8 -10 -15 -16 -15 -7 0 -7 7 1 21 9 17 8 20 -3 17 -7 -3
-13 -9 -13 -14 0 -5 -4 -14 -8 -20 -4 -7 1 -14 13 -17 12 -3 24 1 29 11 5 9
13 13 17 9 5 -5 3 -12 -4 -16 -18 -11 -4 -41 16 -34 10 4 14 2 9 -3 -10 -10
-58 -13 -51 -3 2 4 -2 12 -10 18 -10 9 -29 4 -79 -21 -37 -18 -67 -39 -67 -46
0 -6 3 -11 8 -11 18 3 20 -3 12 -31 -12 -43 6 -27 20 18 16 50 46 73 77 59 12
-5 20 -14 17 -18 -9 -15 8 -10 27 7 10 9 19 11 23 6 3 -6 -7 -16 -24 -24 -29
-12 -42 -31 -19 -26 6 2 14 -3 17 -11 3 -8 0 -11 -7 -7 -6 4 -9 2 -5 -7 3 -8
-2 -17 -10 -20 -11 -4 -13 0 -10 19 5 26 -13 33 -23 8 -3 -8 -12 -13 -19 -10
-7 3 -18 -3 -23 -12 -16 -27 -12 -8 5 27 12 24 21 31 35 28 14 -4 19 0 19 16
0 18 -2 19 -10 7 -6 -9 -10 -11 -10 -3 0 23 -29 1 -45 -35 -10 -20 -29 -50
-44 -66 -22 -25 -23 -28 -6 -23 20 7 20 7 0 -8 -17 -14 -21 -13 -38 4 -24 24
-15 41 18 35 18 -3 23 -1 19 10 -3 8 -13 13 -22 10 -9 -3 -7 1 5 7 13 7 23 16
23 21 0 12 -14 10 -29 -4 -11 -11 -12 -9 -4 7 14 28 5 45 -23 45 -17 0 -23 -4
-18 -12 4 -7 3 -8 -5 -4 -6 4 -9 11 -6 16 3 5 -2 13 -11 18 -11 6 -13 11 -5
16 6 4 11 2 11 -3 0 -6 5 -11 11 -11 7 0 9 10 5 26 -5 17 -3 23 4 19 6 -4 17
-1 25 5 8 7 15 9 15 6 0 -4 7 0 16 8 8 9 20 13 26 10 7 -5 9 3 4 22 -4 16 -3
24 1 17 6 -8 12 -8 25 1 10 7 15 16 11 20 -4 4 0 4 9 1 11 -4 21 1 29 14 10
15 16 17 26 9 11 -8 12 -7 7 7 -5 13 -4 16 5 11 15 -10 71 3 71 15 0 6 -5 7
-10 4 -19 -12 -62 -16 -55 -6 3 6 -7 4 -22 -4 -15 -8 -37 -15 -47 -15 -11 0
-16 -3 -13 -7 9 -9 -24 -32 -47 -33 -13 0 -16 -5 -12 -17 4 -10 4 -14 0 -11
-4 4 -16 2 -28 -4 -20 -10 -20 -10 -6 7 14 17 14 18 -7 6 -28 -15 -30 -1 -3
22 11 9 27 14 36 10 10 -4 15 -2 12 3 -4 5 0 18 8 29 8 10 14 14 14 8 0 -7 -5
-15 -10 -18 -6 -4 -8 -11 -5 -16 9 -13 25 -11 23 3 -2 7 12 19 30 27 32 15 47
39 16 27 -13 -5 -14 -4 -6 7 7 8 9 17 5 21 -4 4 -1 11 7 16 21 14 27 12 27 -5
0 -9 -6 -14 -13 -11 -10 4 -11 0 -2 -19 9 -20 14 -22 30 -14 10 5 23 7 28 4 6
-4 24 1 42 9 39 20 38 21 32 -10 -4 -22 -2 -24 15 -14 11 5 23 15 27 22 4 7 3
8 -4 4 -7 -4 -12 -2 -12 3 0 6 9 11 20 11 11 0 20 4 20 10 0 6 -9 6 -26 0 -14
-6 -30 -8 -35 -5 -5 3 -18 1 -29 -5 -15 -8 -20 -8 -20 2 -1 9 -4 8 -13 -3 -8
-11 -19 -14 -32 -9 -18 7 -16 9 15 22 19 8 37 11 38 6 2 -4 8 -6 13 -2 11 6
12 24 2 23 -22 -4 -24 3 -8 21 21 24 35 26 35 6 0 -25 18 -28 47 -9 15 10 24
13 20 7 -4 -7 0 -14 8 -18 8 -3 15 -11 15 -18 0 -9 -3 -9 -11 2 -9 13 -10 13
-6 0 2 -8 13 -15 25 -16 19 -1 20 0 5 22 -9 14 -11 24 -5 24 6 0 16 -8 22 -17
10 -16 11 -15 7 5 -4 14 0 22 9 22 8 0 14 5 14 11 0 5 -4 7 -10 4 -5 -3 -10
-2 -10 4 0 11 58 26 67 17 4 -3 -4 -6 -16 -6 -17 0 -22 -5 -19 -22 2 -14 -2
-22 -9 -21 -7 2 -13 -2 -13 -7 0 -13 6 -13 31 0 13 7 19 7 19 0 0 -5 9 -10 20
-10 11 0 20 -4 20 -10 0 -18 26 -10 50 15 32 34 46 32 21 -4 -12 -16 -21 -33
-21 -38 0 -4 4 -2 9 6 5 8 21 16 35 18 23 3 26 0 26 -24 1 -27 1 -27 16 -8 8
11 12 25 10 31 -2 6 6 16 18 22 16 7 27 6 41 -5 18 -14 18 -15 2 -9 -13 4 -17
2 -14 -6 2 -7 10 -12 17 -10 8 2 11 -6 8 -23 -6 -26 13 -55 35 -55 6 0 2 6 -9
14 -15 11 -20 23 -16 45 2 17 8 28 13 26 4 -3 6 -12 2 -20 -3 -8 0 -15 7 -15
6 0 9 3 6 8 -2 4 3 16 11 27 14 18 15 18 9 1 -5 -13 -2 -17 9 -13 8 4 17 2 20
-4 4 -5 11 -7 16 -3 5 3 7 10 4 15 -4 5 -1 9 5 9 7 0 10 -7 6 -15 -3 -8 -1
-15 4 -15 6 0 10 6 11 13 0 6 5 2 11 -11 14 -28 34 -23 30 8 -2 22 -1 22 15 8
10 -8 23 -13 30 -11 6 2 18 -5 25 -16 8 -12 18 -18 21 -14 4 3 7 2 7 -3 0 -6
-5 -15 -12 -22 -9 -9 -7 -13 6 -18 10 -4 13 -10 8 -13 -6 -3 -8 -18 -5 -34 4
-20 14 -29 37 -36 23 -7 25 -9 10 -10 -12 -1 -27 -8 -34 -16 -11 -13 -10 -14
4 -9 14 5 16 2 10 -20 -4 -16 -2 -26 5 -26 6 0 8 8 5 17 -5 16 -4 16 6 3 9
-12 11 -10 6 10 -4 20 -1 26 14 27 10 1 21 -5 24 -14 5 -13 4 -14 -9 -3 -12
10 -15 10 -15 -1 0 -30 45 -60 53 -36 2 6 6 2 9 -10 4 -17 1 -21 -12 -20 -10
1 -16 5 -14 9 3 4 1 8 -4 8 -22 0 -19 -28 4 -39 16 -7 24 -19 24 -36 0 -15 -4
-24 -10 -20 -5 3 -10 14 -10 23 0 15 -2 15 -10 2 -7 -11 -10 -11 -10 -2 0 7
-4 11 -9 8 -18 -12 -4 -41 19 -41 18 0 23 -6 26 -33 3 -22 0 -31 -7 -27 -6 4
-10 1 -8 -6 3 -28 -1 -49 -11 -49 -7 0 -7 6 0 19 7 13 7 22 0 26 -5 3 -10 -3
-10 -14 0 -12 0 -24 -1 -28 0 -5 7 -9 15 -11 11 -2 16 4 16 19 l0 23 16 -22
c15 -22 35 -22 33 1 0 8 -2 8 -6 -1 -4 -10 -8 -9 -19 5 -19 25 -17 32 7 30 12
-1 25 -11 29 -23 11 -28 45 -38 47 -13 1 10 -1 18 -5 18 -22 -3 -30 4 -28 26
1 25 16 36 16 13 0 -9 3 -9 12 0 16 16 26 15 24 -2 0 -8 4 -15 9 -16 6 -1 18
-9 28 -17 16 -15 17 -14 17 12 0 16 2 26 5 24 5 -5 13 -43 14 -66 1 -7 8 -10
17 -6 9 3 12 9 7 12 -5 3 -6 17 -2 31 l7 25 1 -25 c1 -15 6 -31 13 -38 16 -16
45 -15 51 1 4 9 6 9 6 0 1 -7 8 -13 17 -13 11 0 15 6 11 20 -3 10 0 21 7 24 7
3 7 5 -1 5 -7 1 -13 6 -13 13 0 9 3 9 12 0 18 -18 32 -14 17 5 -12 14 -12 16
0 8 11 -6 13 -4 8 8 -3 10 -2 17 3 17 5 0 8 -13 8 -29 -1 -32 9 -54 22 -46 4
3 13 -2 20 -10 7 -8 20 -15 29 -15 12 0 10 5 -9 20 l-25 19 25 -5 c14 -3 20
-2 14 3 -6 4 -7 19 -4 33 l7 25 7 -26 c4 -14 6 -29 5 -35 -4 -23 3 -30 35 -31
32 -1 42 14 23 33 -14 14 -7 22 16 17 20 -4 21 -3 5 10 -10 8 -18 18 -18 22 0
4 6 2 13 -4 8 -6 17 -8 20 -4 4 3 7 -1 7 -10 0 -9 -4 -19 -10 -22 -5 -3 -10
-15 -10 -25 0 -16 7 -18 43 -17 32 2 43 6 42 17 -1 21 -55 80 -72 80 -7 0 -13
5 -13 11 0 5 5 7 12 3 8 -5 9 0 5 17 -4 13 -7 27 -7 32 0 4 -7 7 -15 7 -8 0
-15 7 -15 16 0 14 3 14 15 4 13 -11 18 -11 28 0 10 10 9 12 -4 7 -9 -3 -22 0
-28 6 -7 7 -14 8 -21 1 -7 -7 -4 -19 9 -36 l20 -25 -26 5 c-17 3 -24 1 -19 -6
3 -6 -2 -15 -11 -21 -17 -10 -16 -11 5 -17 25 -7 30 -24 7 -24 -21 0 -65 30
-65 44 0 6 4 5 9 -3 7 -11 13 -11 32 3 13 9 18 16 12 16 -7 0 -10 7 -7 15 4 8
1 15 -5 15 -6 0 -11 -5 -11 -11 0 -8 -4 -8 -15 1 -8 6 -23 9 -34 5 -15 -5 -18
-2 -15 13 7 25 41 45 50 30 4 -6 3 -8 -3 -5 -6 4 -17 -1 -24 -11 -7 -9 -9 -14
-5 -10 5 4 15 3 23 -4 10 -8 17 -8 25 0 8 8 15 7 25 -6 13 -15 14 -14 8 11 -3
15 -1 27 5 27 17 0 11 21 -12 41 l-23 19 28 -11 c15 -7 27 -18 27 -25 0 -6 7
-14 15 -18 8 -3 15 0 15 6 0 8 7 6 17 -4 13 -14 14 -20 4 -32 -9 -11 -9 -20
-2 -34 6 -11 7 -23 3 -28 -4 -5 0 -3 9 4 17 13 35 -1 58 -46 7 -12 17 -20 22
-16 7 4 1 17 -14 33 -30 31 -51 71 -43 79 3 3 6 -1 6 -9 1 -10 4 -9 11 4 6 9
14 15 20 12 5 -3 6 0 3 8 -3 8 -1 18 4 21 11 6 25 -21 17 -34 -2 -4 5 -16 16
-26 19 -17 20 -17 13 2 -7 17 -6 17 9 5 10 -8 20 -11 23 -8 3 3 -6 13 -21 23
-19 12 -25 24 -23 39 3 11 -1 27 -9 33 -10 10 -13 10 -13 -1 0 -36 -42 -41
-60 -7 -7 14 -5 19 10 23 11 3 18 2 15 -3 -3 -4 2 -13 10 -20 13 -11 15 -9 12
11 -3 19 -10 24 -31 23 -20 -1 -26 3 -22 13 4 8 6 22 7 31 0 12 3 10 9 -5 5
-13 15 -23 21 -23 8 0 8 4 -1 15 -16 20 -6 19 14 -1 13 -12 16 -13 16 -1 0 15
-47 42 -67 38 -7 -1 -13 2 -13 8 0 11 18 9 47 -7 31 -17 39 -15 19 7 -16 17
-16 19 6 25 22 6 22 7 5 20 -10 8 -14 17 -9 20 6 3 13 -1 16 -9 3 -8 9 -15 13
-14 22 4 33 -3 33 -18 0 -15 -1 -15 -13 2 -10 12 -16 14 -21 7 -4 -7 -2 -12 5
-12 7 0 9 -8 6 -21 -4 -16 -3 -18 9 -8 8 6 14 8 14 5 0 -4 7 -1 15 7 8 9 20
17 26 19 8 3 6 13 -7 33 -18 28 -18 28 3 17 12 -7 23 -16 25 -21 6 -17 30 -16
33 2 2 9 -1 17 -6 17 -14 0 -11 20 5 36 11 10 17 11 22 3 3 -6 1 -15 -6 -19
-8 -5 -7 -9 5 -14 33 -12 35 -5 9 35 l-26 42 26 -5 c22 -4 29 0 25 15 0 1 4
15 10 30 7 18 7 26 1 22 -6 -4 -9 5 -8 19 2 20 7 25 20 20 12 -3 18 0 18 9 0
19 -26 40 -40 32 -5 -3 -10 1 -10 9 0 18 16 21 25 6 3 -5 11 -10 17 -10 6 0 1
9 -12 20 l-23 20 27 0 c15 0 25 -3 23 -7 -3 -5 1 -14 9 -21 17 -15 18 -8 4 19
-9 15 -7 19 7 19 14 1 13 5 -9 21 -15 11 -25 25 -23 32 8 22 -13 40 -44 39
-17 0 -31 4 -31 9 0 6 6 7 13 3 6 -4 8 -3 4 1 -4 5 -20 10 -35 11 -15 1 -19 0
-10 -2 10 -3 15 -11 11 -20 -4 -10 3 -14 23 -14 29 0 28 -10 -3 -15 -10 -1
-26 4 -35 13 -11 9 -18 10 -18 4 0 -6 5 -14 10 -17 6 -4 7 -11 4 -17 -4 -6 1
-6 14 1 16 8 23 7 33 -7 11 -14 11 -15 -1 -5 -8 8 -19 9 -30 3 -18 -9 -51 -7
-71 6 -8 4 -9 -3 -4 -25 4 -19 3 -31 -4 -31 -6 0 -8 6 -5 13 3 8 -3 13 -16 13
-20 0 -20 -1 -2 -19 10 -10 34 -20 52 -22 18 -3 38 -10 44 -16 8 -8 5 -9 -14
-4 -22 7 -23 6 -11 -8 7 -9 18 -14 24 -10 6 3 7 1 3 -5 -5 -8 -16 -5 -36 9
-20 15 -36 20 -54 15 -13 -3 -28 -2 -31 4 -3 5 -15 10 -26 10 -10 0 -19 5 -19
11 0 5 -4 7 -10 4 -5 -3 -10 -2 -10 3 0 6 -7 13 -16 16 -13 5 -14 4 -6 -7 7
-8 9 -17 6 -20 -10 -9 23 -38 46 -40 11 -1 16 -5 11 -10 -5 -5 -25 -4 -47 2
-22 6 -42 11 -46 11 -13 0 -9 -28 5 -33 6 -3 -1 -6 -17 -6 -25 -1 -28 -4 -24
-26 3 -14 1 -25 -3 -25 -5 0 -9 7 -9 15 0 8 -4 15 -9 15 -5 0 -3 14 6 31 18
37 12 117 -19 229 -32 116 -32 120 -14 120 10 0 13 -6 10 -15 -4 -8 -1 -15 6
-15 7 0 10 -7 6 -15 -3 -8 -1 -15 4 -15 5 0 7 -8 4 -17 -5 -15 -4 -15 4 -4 6
8 10 34 10 59 0 53 5 59 36 43 16 -9 29 -10 41 -4 16 9 16 11 1 16 -9 4 -16 2
-16 -3 0 -5 -7 -7 -15 -4 -13 5 -13 8 1 21 11 11 12 19 5 26 -16 16 -13 37 4
37 18 0 20 16 3 23 -7 3 3 6 22 7 29 0 32 2 18 11 -21 12 -24 33 -4 26 10 -4
14 1 13 14 -1 14 -7 19 -19 16 -10 -3 -18 -2 -18 3 0 4 -10 10 -22 13 -18 5
-19 8 -8 21 7 9 18 16 24 16 7 0 6 -4 -2 -9 -11 -7 -11 -9 1 -14 9 -3 21 1 27
8 8 9 23 13 39 10 25 -5 25 -5 3 5 -17 7 -22 17 -20 40 1 16 7 30 13 30 5 0 1
6 -9 12 -25 14 -84 19 -91 7z m-1332 -66 c-13 -8 -23 -20 -23 -25 0 -6 7 -4
17 3 15 13 15 12 3 -11 -12 -23 -12 -24 3 -11 23 18 21 9 -3 -19 -11 -13 -20
-28 -20 -35 0 -12 -49 -39 -57 -31 -2 2 10 14 26 26 30 21 44 70 21 70 -5 0
-10 -6 -10 -12 0 -10 -2 -10 -8 -1 -9 14 -61 10 -94 -8 -21 -11 -22 -11 -10 4
8 9 24 19 35 23 12 4 27 14 34 23 10 14 11 12 6 -9 l-5 -25 16 22 c9 12 23 20
30 17 8 -3 17 -1 21 5 3 6 14 11 23 10 14 0 13 -3 -5 -16z m-143 -3 c0 -5 -5
-10 -11 -10 -5 0 -7 5 -4 10 3 6 8 10 11 10 2 0 4 -4 4 -10z m1466 -42 c-1 -7
-5 -19 -10 -27 -7 -11 -10 -11 -17 0 -4 8 -3 19 3 26 13 17 27 17 24 1z
m-1391 -37 c-3 -6 -11 -11 -17 -11 -6 0 -6 6 2 15 14 17 26 13 15 -4z m1425
-11 c0 -5 -2 -10 -4 -10 -3 0 -8 5 -11 10 -3 6 -1 10 4 10 6 0 11 -4 11 -10z
m-1587 -25 c-3 -9 -8 -14 -10 -11 -3 3 -2 9 2 15 9 16 15 13 8 -4z m1557 -20
c0 -8 -2 -15 -4 -15 -2 0 -6 7 -10 15 -3 8 -1 15 4 15 6 0 10 -7 10 -15z
m-1375 -15 c-4 -6 -15 -8 -24 -5 -10 3 -24 -1 -31 -10 -11 -13 -10 -14 5 -9
13 5 16 4 11 -4 -4 -7 -14 -12 -22 -12 -8 0 -14 -5 -14 -10 0 -6 -6 -5 -14 2
-25 24 -8 39 64 58 29 7 35 5 25 -10z m-135 -40 c0 -5 -5 -10 -11 -10 -5 0 -7
5 -4 10 3 6 8 10 11 10 2 0 4 -4 4 -10z m1530 -15 c9 -10 9 -15 1 -15 -6 0
-11 5 -11 11 0 7 -12 8 -32 4 -25 -5 -29 -4 -18 4 21 15 46 13 60 -4z m-1505
-15 c-10 -11 -21 -17 -26 -14 -13 7 -51 -15 -44 -27 4 -5 11 -6 18 -2 6 3 -4
-12 -23 -35 -18 -23 -35 -42 -37 -42 -7 0 17 39 28 46 6 3 8 16 5 29 -6 22 11
35 74 58 24 9 24 8 5 -13z m1485 -10 c0 -5 -4 -10 -10 -10 -5 0 -10 5 -10 10
0 6 5 10 10 10 6 0 10 -4 10 -10z m-1465 -41 c0 -8 -9 -14 -22 -13 -24 1 -29
-11 -13 -36 8 -13 11 -12 24 5 16 21 22 10 7 -14 -10 -15 -41 -25 -40 -13 3
21 -2 32 -12 27 -6 -4 -8 -13 -5 -21 3 -8 0 -11 -10 -7 -17 6 -18 15 -2 31 7
7 8 12 3 12 -4 0 0 9 9 19 11 12 25 17 39 14 18 -4 19 -3 7 7 -13 10 -13 11 0
7 8 -2 15 -10 15 -18z m-143 -11 c-18 -18 -24 -20 -34 -10 -11 11 -10 12 3 7
9 -3 22 1 29 10 7 8 15 15 18 15 4 0 -4 -10 -16 -22z m178 2 c-8 -14 -8 -20 0
-20 6 0 8 -5 4 -11 -11 -19 -24 13 -13 33 5 10 12 18 15 18 2 0 0 -9 -6 -20z
m200 -24 c0 -5 -3 -6 -7 -3 -3 4 -11 3 -17 -2 -16 -12 -57 -21 -50 -10 3 5 12
9 19 9 8 0 19 10 26 21 9 17 13 19 20 8 5 -8 9 -18 9 -23z m14 -30 c-3 -9 -10
-14 -14 -11 -13 8 -20 -39 -7 -48 8 -6 6 -7 -5 -3 -12 3 -18 0 -18 -10 0 -8
-5 -12 -11 -9 -7 5 -5 15 6 32 23 34 12 40 -14 7 -17 -22 -21 -23 -21 -9 0 27
29 55 57 55 12 0 23 5 23 12 0 6 2 9 5 6 3 -3 3 -13 -1 -22z m-434 -12 c0 -8
-19 -13 -24 -6 -3 5 1 9 9 9 8 0 15 -2 15 -3z m95 -34 c-10 -11 -20 -18 -23
-15 -3 3 3 14 13 25 10 11 20 18 23 15 3 -3 -3 -14 -13 -25z m121 15 c-11 -8
-22 -12 -25 -9 -6 6 19 24 34 24 6 -1 1 -7 -9 -15z m29 -25 c-3 -5 -12 -10
-18 -10 -7 0 -6 4 3 10 19 12 23 12 15 0z m-92 -17 c3 -5 -5 -16 -18 -25 -15
-11 -22 -13 -21 -5 4 29 28 48 39 30z m52 -3 c-3 -5 -12 -10 -18 -10 -7 0 -6
4 3 10 19 12 23 12 15 0z m135 5 c0 -2 -9 -9 -19 -15 -14 -7 -22 -7 -27 2 -4
6 -3 8 4 4 6 -3 13 -2 17 4 6 10 25 14 25 5z m72 -22 c-6 -3 -9 -9 -6 -14 3
-6 -9 -24 -27 -41 -21 -20 -34 -27 -37 -20 -6 19 19 46 29 31 4 -8 9 -3 14 12
9 30 26 51 34 43 3 -4 0 -9 -7 -11z m-128 -48 c-10 -8 -23 -14 -29 -14 -5 -1
1 8 15 19 14 10 27 17 29 14 3 -2 -4 -11 -15 -19z m36 -29 c0 -2 -8 -10 -17
-17 -16 -13 -17 -12 -4 4 13 16 21 21 21 13z m1621 -23 c13 -16 12 -17 -3 -4
-17 13 -22 21 -14 21 2 0 10 -8 17 -17z m75 -4 c8 -14 -10 -11 -32 6 -18 13
-18 14 4 8 12 -3 25 -9 28 -14z m-1911 1 c-3 -5 -12 -10 -18 -10 -7 0 -6 4 3
10 19 12 23 12 15 0z m1784 -17 c2 -2 -5 -3 -17 -3 -14 0 -22 6 -22 16 0 14 3
15 18 3 9 -7 19 -15 21 -16z m52 -20 c13 -16 12 -17 -3 -4 -17 13 -22 21 -14
21 2 0 10 -8 17 -17z m-1914 -10 c-8 -10 -18 -30 -22 -44 -5 -20 -14 -28 -36
-31 -31 -5 -31 -1 2 16 12 6 20 14 18 18 -2 3 7 18 20 32 27 29 43 36 18 9z
m74 -16 c-10 -9 -11 -8 -5 6 3 10 9 15 12 12 3 -3 0 -11 -7 -18z m79 -17 c-5
-9 -6 -20 -3 -24 3 -3 1 -6 -5 -6 -6 0 -10 13 -9 29 1 18 7 27 14 24 9 -4 10
-10 3 -23z m-136 -23 c-16 -19 -34 -42 -41 -53 -10 -16 -12 -17 -12 -2 -1 15
61 88 75 88 3 0 -7 -15 -22 -33z m86 8 c-7 -9 -15 -13 -18 -10 -3 2 1 11 8 20
7 9 15 13 18 10 3 -2 -1 -11 -8 -20z m90 -4 c0 -17 -18 -21 -24 -6 -3 9 0 15
9 15 8 0 15 -4 15 -9z m40 -1 c-20 -13 -33 -13 -25 0 3 6 14 10 23 10 15 0 15
-2 2 -10z m1675 0 c3 -6 -1 -7 -9 -4 -18 7 -21 14 -7 14 6 0 13 -4 16 -10z
m-1619 -12 c4 -6 3 -8 -4 -4 -5 3 -12 1 -14 -6 -5 -14 -38 -20 -38 -6 0 6 7 8
15 4 9 -3 15 0 15 9 0 18 16 20 26 3z m-236 -4 c0 -8 -19 -13 -24 -6 -3 5 1 9
9 9 8 0 15 -2 15 -3z m70 -14 c0 -5 -9 -10 -19 -10 -11 0 -23 -4 -26 -10 -3
-5 1 -10 9 -10 8 0 14 -8 13 -19 0 -10 -7 -18 -14 -17 -17 3 -29 16 -14 16 7
0 9 5 6 10 -4 6 -11 7 -17 4 -6 -4 -3 5 8 19 19 26 54 37 54 17z m69 -4 c-12
-10 -60 -16 -54 -6 3 5 18 10 32 10 15 0 24 -2 22 -4z m418 -45 c-1 -8 -6 -14
-12 -14 -5 1 -16 -3 -22 -9 -9 -7 -13 -7 -13 1 0 6 10 16 23 21 14 6 16 9 6 9
-9 1 -24 10 -33 20 -17 19 -17 19 18 3 20 -10 35 -23 33 -31z m33 23 c0 -2 -9
0 -20 6 -11 6 -20 13 -20 16 0 2 9 0 20 -6 11 -6 20 -13 20 -16z m-435 -15
c-8 -12 -45 -7 -45 7 0 7 10 9 25 6 14 -2 22 -8 20 -13z m-180 1 c-3 -5 -14
-10 -23 -10 -15 0 -15 2 -2 10 20 13 33 13 25 0z m486 -15 c5 3 6 -1 3 -9 -5
-13 -8 -13 -20 -1 -8 7 -14 20 -14 27 0 8 5 6 11 -5 6 -9 14 -15 20 -12z
m1414 15 c3 -5 2 -10 -4 -10 -5 0 -13 5 -16 10 -3 6 -2 10 4 10 5 0 13 -4 16
-10z m-30 -10 c3 -6 -1 -7 -9 -4 -18 7 -21 14 -7 14 6 0 13 -4 16 -10z m-1711
-18 c2 -4 -4 -8 -14 -8 -10 0 -16 4 -14 8 3 4 9 8 14 8 5 0 11 -4 14 -8z
m-234 -17 c-7 -8 -17 -15 -23 -15 -6 0 -2 7 9 15 25 19 30 19 14 0z m920 -30
c0 -5 -5 -3 -10 5 -5 8 -10 20 -10 25 0 6 5 3 10 -5 5 -8 10 -19 10 -25z
m-900 15 c0 -5 -5 -10 -11 -10 -5 0 -7 5 -4 10 3 6 8 10 11 10 2 0 4 -4 4 -10z
m1880 0 c18 -12 2 -12 -25 0 -13 6 -15 9 -5 9 8 0 22 -4 30 -9z m-1814 -15
c-11 -9 -14 -15 -7 -15 9 0 8 -4 -3 -15 -18 -19 -33 -20 -17 -2 6 8 8 17 4 21
-4 4 -1 11 7 16 24 15 37 11 16 -5z m1794 -15 c-18 -12 -30 -13 -30 -2 0 4 10
9 22 9 18 2 20 0 8 -7z m-1892 -27 c-1 -10 1 -23 5 -30 4 -6 3 -14 -2 -17 -5
-3 -14 8 -20 24 -6 18 -6 28 -1 25 6 -4 10 -1 10 4 0 6 3 11 6 11 3 0 4 -8 2
-17z m1926 1 c9 -23 4 -24 -16 -2 -14 14 -15 18 -4 18 8 0 17 -7 20 -16z
m-867 -26 c-3 -8 -6 -5 -6 6 -1 11 2 17 5 13 3 -3 4 -12 1 -19z m23 -49 c0 6
5 11 10 11 18 0 10 -19 -11 -25 -24 -8 -24 -8 -33 25 l-7 25 20 -24 c12 -13
21 -18 21 -12z m-710 -19 c0 -5 -2 -10 -4 -10 -3 0 -8 5 -11 10 -3 6 -1 10 4
10 6 0 11 -4 11 -10z m1240 -14 c0 -11 -19 -15 -25 -6 -3 5 1 10 9 10 9 0 16
-2 16 -4z m-65 -16 c-3 -5 -12 -10 -18 -10 -7 0 -6 4 3 10 19 12 23 12 15 0z
m50 -18 c-3 -3 -11 0 -18 7 -9 10 -8 11 6 5 10 -3 15 -9 12 -12z m46 1 c13
-16 12 -17 -3 -4 -17 13 -22 21 -14 21 2 0 10 -8 17 -17z m59 -7 c0 -2 -7 -6
-15 -10 -8 -3 -15 -1 -15 4 0 6 7 10 15 10 8 0 15 -2 15 -4z m-145 -34 c-3 -3
-11 0 -18 7 -9 10 -8 11 6 5 10 -3 15 -9 12 -12z m62 -24 l4 -23 -22 21 c-12
13 -18 27 -14 34 10 16 28 -2 32 -32z m108 13 c-6 -5 -25 10 -25 20 0 5 6 4
14 -3 8 -7 12 -15 11 -17z m41 -40 c-4 -6 -14 -7 -23 -4 -15 6 -14 7 3 13 22
9 29 6 20 -9z m-1789 -13 c-3 -8 -6 -5 -6 6 -1 11 2 17 5 13 3 -3 4 -12 1 -19z
m53 19 c0 -2 -12 -14 -27 -28 l-28 -24 24 28 c23 25 31 32 31 24z m1454 -23
c5 -14 4 -15 -9 -4 -17 14 -19 20 -6 20 5 0 12 -7 15 -16z m-259 -4 c3 -6 -1
-7 -9 -4 -18 7 -21 14 -7 14 6 0 13 -4 16 -10z m-24 -17 c5 -39 4 -93 -3 -93
-4 0 -16 9 -26 21 -18 19 -19 23 -5 50 13 27 32 39 34 22z m45 -40 c-7 -7 -26
7 -26 19 0 6 6 6 15 -2 9 -7 13 -15 11 -17z m44 16 c0 -5 -4 -7 -10 -4 -19 12
-10 -7 13 -26 l22 -19 -27 13 c-27 12 -35 27 -21 40 10 10 23 8 23 -4z m260
-3 c0 -2 -7 -17 -15 -32 -14 -27 -15 -27 -15 -6 0 12 5 22 11 22 5 0 7 5 4 10
-3 6 -1 10 4 10 6 0 11 -2 11 -4z m-194 -31 c1 -8 -2 -17 -7 -21 -5 -3 -9 7
-9 22 0 27 12 26 16 -1z m-1273 -45 c-3 -12 -8 -19 -11 -16 -5 6 5 36 12 36 2
0 2 -9 -1 -20z m1333 8 c4 4 3 0 -4 -9 -6 -9 -11 -18 -9 -20 1 -2 0 -2 -3 -1
-3 2 -5 7 -5 10 0 4 -4 14 -10 22 -7 12 -6 13 7 3 8 -7 19 -9 24 -5z m214 -8
c0 -5 -2 -10 -4 -10 -3 0 -8 5 -11 10 -3 6 -1 10 4 10 6 0 11 -4 11 -10z m95
-20 c3 -5 4 -10 1 -10 -2 0 -12 -3 -20 -6 -12 -5 -15 -2 -10 10 7 18 20 21 29
6z m-85 -10 c0 -5 -2 -10 -4 -10 -3 0 -8 5 -11 10 -3 6 -1 10 4 10 6 0 11 -4
11 -10z"/>
<path d="M1220 141 c0 -5 5 -13 10 -16 6 -3 10 -2 10 4 0 5 -4 13 -10 16 -5 3
-10 2 -10 -4z"/>
<path d="M1910 1316 c0 -2 8 -10 18 -17 15 -13 16 -12 3 4 -13 16 -21 21 -21
13z"/>
<path d="M2000 1295 c13 -14 26 -23 28 -20 6 6 -33 45 -44 45 -4 0 3 -11 16
-25z"/>
<path d="M845 1300 c-3 -5 -1 -10 4 -10 6 0 11 5 11 10 0 6 -2 10 -4 10 -3 0
-8 -4 -11 -10z"/>
<path d="M467 1269 c-6 -22 6 -25 22 -5 9 10 8 15 -3 19 -8 3 -16 -2 -19 -14z"/>
<path d="M2045 1280 c-8 -13 -1 -24 14 -19 6 3 7 10 2 18 -6 10 -10 10 -16 1z"/>
<path d="M2103 1282 c-7 -4 -9 -13 -4 -21 6 -9 10 -7 14 8 3 12 4 21 4 21 -1
0 -7 -4 -14 -8z"/>
<path d="M145 1267 c-25 -29 -26 -40 -2 -18 15 14 27 26 27 28 0 7 -16 1 -25
-10z"/>
<path d="M100 1259 c0 -5 5 -7 10 -4 6 3 10 8 10 11 0 2 -4 4 -10 4 -5 0 -10
-5 -10 -11z"/>
<path d="M571 1258 c-1 -23 9 -48 21 -48 7 0 7 4 0 13 -5 6 -12 21 -15 32 -3
15 -5 16 -6 3z"/>
<path d="M494 1235 c-17 -27 -16 -39 2 -27 12 8 29 52 20 52 -3 0 -13 -11 -22
-25z"/>
<path d="M2071 1225 c25 -26 44 -31 54 -15 3 5 0 7 -8 5 -7 -3 -22 3 -32 15
-10 11 -22 20 -28 20 -5 0 1 -11 14 -25z"/>
<path d="M2140 1235 c0 -8 8 -11 20 -8 11 3 20 7 20 8 0 1 -9 5 -20 8 -12 3
-20 0 -20 -8z"/>
<path d="M630 1225 c-6 -8 -9 -18 -6 -24 3 -5 1 -11 -6 -13 -8 -3 -6 -6 4 -10
11 -5 15 -2 13 10 -1 9 2 25 7 35 11 21 5 22 -12 2z"/>
<path d="M456 1215 c4 -8 8 -15 10 -15 2 0 4 7 4 15 0 8 -4 15 -10 15 -5 0 -7
-7 -4 -15z"/>
<path d="M551 1221 c-1 -8 -4 -12 -7 -8 -3 3 -13 -1 -22 -9 -9 -8 -28 -23 -41
-33 -13 -10 -20 -20 -15 -24 5 -3 24 7 42 23 19 16 38 30 44 32 6 2 8 11 5 19
-5 12 -6 12 -6 0z"/>
<path d="M890 1219 c0 -5 5 -7 10 -4 6 3 10 8 10 11 0 2 -4 4 -10 4 -5 0 -10
-5 -10 -11z"/>
<path d="M730 1199 c0 -5 5 -7 10 -4 6 3 10 8 10 11 0 2 -4 4 -10 4 -5 0 -10
-5 -10 -11z"/>
<path d="M845 1200 c-3 -5 -1 -10 4 -10 6 0 11 5 11 10 0 6 -2 10 -4 10 -3 0
-8 -4 -11 -10z"/>
<path d="M2154 1168 c-5 -7 -3 -8 6 -3 7 4 16 2 21 -6 7 -11 9 -10 9 4 0 19
-25 23 -36 5z"/>
<path d="M435 1160 c-3 -5 -1 -10 4 -10 6 0 11 5 11 10 0 6 -2 10 -4 10 -3 0
-8 -4 -11 -10z"/>
<path d="M755 1161 c-3 -6 3 -9 14 -8 11 0 17 5 15 9 -7 11 -22 10 -29 -1z"/>
<path d="M815 1160 c-3 -5 -1 -10 4 -10 6 0 11 5 11 10 0 6 -2 10 -4 10 -3 0
-8 -4 -11 -10z"/>
<path d="M2103 1149 c-2 -19 11 -32 35 -35 6 -1 10 2 6 7 -3 5 -9 7 -14 4 -4
-3 -10 2 -13 9 -3 8 -1 16 6 19 7 2 5 5 -4 9 -10 4 -15 -1 -16 -13z"/>
<path d="M409 1143 c-1 -4 -1 -12 0 -17 1 -4 -4 -14 -10 -22 -6 -8 -7 -14 -2
-14 15 0 34 48 23 55 -6 4 -11 3 -11 -2z"/>
<path d="M2080 1121 c16 -31 32 -36 18 -7 -6 14 -15 26 -20 26 -5 0 -4 -9 2
-19z"/>
<path d="M0 1119 c0 -5 5 -7 10 -4 5 3 10 8 10 11 0 2 -4 4 -10 4 -5 0 -10 -5
-10 -11z"/>
<path d="M661 1119 c-1 -9 -11 -24 -23 -32 -13 -9 -18 -16 -12 -16 17 -1 47
36 41 51 -4 9 -6 8 -6 -3z"/>
<path d="M630 1109 c0 -5 5 -7 10 -4 6 3 10 8 10 11 0 2 -4 4 -10 4 -5 0 -10
-5 -10 -11z"/>
<path d="M2162 1100 c0 -14 2 -19 5 -12 2 6 2 18 0 25 -3 6 -5 1 -5 -13z"/>
<path d="M577 1064 c-10 -13 -14 -24 -9 -24 14 0 44 37 35 43 -4 3 -16 -6 -26
-19z"/>
<path d="M706 1057 c3 -10 9 -15 12 -12 3 3 0 11 -7 18 -10 9 -11 8 -5 -6z"/>
<path d="M105 1050 c-8 -14 13 -22 31 -12 14 8 14 10 -5 15 -11 3 -23 1 -26
-3z"/>
<path d="M612 1010 c-12 -12 -22 -26 -22 -32 0 -6 1 -9 3 -7 1 2 13 16 26 32
29 32 24 36 -7 7z"/>
<path d="M699 954 c-14 -38 -4 -41 14 -5 9 17 11 31 6 31 -5 0 -14 -12 -20
-26z"/>
<path d="M630 965 c0 -5 5 -17 10 -25 5 -8 10 -10 10 -5 0 6 -5 17 -10 25 -5
8 -10 11 -10 5z"/>
<path d="M1722 958 c4 -8 0 -40 -7 -71 -12 -54 -12 -55 6 -44 11 7 24 27 30
44 6 18 15 33 21 33 6 0 8 3 4 8 -4 4 -13 7 -19 7 -7 0 -12 6 -12 14 0 8 -6
16 -14 19 -9 3 -12 0 -9 -10z"/>
<path d="M1162 935 c0 -16 2 -22 5 -12 2 9 2 23 0 30 -3 6 -5 -1 -5 -18z"/>
<path d="M2377 949 c7 -7 15 -10 18 -7 3 3 -2 9 -12 12 -14 6 -15 5 -6 -5z"/>
<path d="M2330 930 c0 -5 5 -10 11 -10 5 0 7 5 4 10 -3 6 -8 10 -11 10 -2 0
-4 -4 -4 -10z"/>
<path d="M536 914 c-4 -9 -4 -19 -1 -22 2 -3 7 3 11 12 4 9 4 19 1 22 -2 3 -7
-3 -11 -12z"/>
<path d="M2373 916 c16 -13 16 -14 1 -20 -9 -4 -27 0 -40 9 -16 10 -22 11 -19
3 7 -17 55 -40 55 -26 0 6 6 6 14 -2 12 -9 15 -7 13 12 -1 23 -14 38 -32 38
-5 -1 -2 -7 8 -14z"/>
<path d="M749 893 c-13 -17 -13 -17 6 -3 11 8 22 16 24 17 2 2 0 3 -6 3 -6 0
-17 -8 -24 -17z"/>
<path d="M1150 876 c0 -22 3 -27 11 -19 8 8 8 16 0 30 -9 16 -10 14 -11 -11z"/>
<path d="M1020 870 c-13 -8 -12 -12 8 -25 12 -9 20 -20 17 -25 -7 -11 22 -7
32 5 4 4 2 5 -4 1 -8 -4 -13 -2 -13 5 0 6 -8 18 -17 26 -10 8 -12 12 -5 8 6
-3 12 -1 12 4 0 13 -10 14 -30 1z"/>
<path d="M989 858 c-6 -22 -5 -38 2 -38 6 0 7 -5 3 -12 -4 -7 -3 -8 5 -4 6 4
14 0 17 -8 3 -9 10 -13 16 -10 5 3 1 15 -9 27 -10 11 -12 17 -5 13 21 -12 13
8 -8 22 -11 7 -20 11 -21 10z"/>
<path d="M2371 851 c-10 -7 -10 -10 -1 -16 6 -4 16 -3 22 3 13 13 -4 23 -21
13z"/>
<path d="M665 840 c-3 -6 1 -7 9 -4 18 7 21 14 7 14 -6 0 -13 -4 -16 -10z"/>
<path d="M1930 831 c0 -6 4 -13 10 -16 6 -3 7 1 4 9 -7 18 -14 21 -14 7z"/>
<path d="M2080 820 c6 -11 13 -20 16 -20 2 0 0 9 -6 20 -6 11 -13 20 -16 20
-2 0 0 -9 6 -20z"/>
<path d="M694 808 l-19 -23 23 19 c21 18 27 26 19 26 -2 0 -12 -10 -23 -22z"/>
<path d="M2357 818 c2 -5 13 -8 24 -8 10 0 19 3 19 8 0 4 -11 7 -24 7 -13 0
-22 -3 -19 -7z"/>
<path d="M1120 794 c-8 -19 -6 -29 5 -41 9 -8 18 -13 21 -10 3 2 -2 11 -10 20
-8 8 -12 18 -9 21 8 8 13 36 7 36 -3 0 -9 -12 -14 -26z"/>
<path d="M2385 790 c-3 -5 -1 -10 4 -10 6 0 11 5 11 10 0 6 -2 10 -4 10 -3 0
-8 -4 -11 -10z"/>
<path d="M608 765 c-3 -13 -2 -22 2 -20 11 7 20 45 10 45 -4 0 -10 -11 -12
-25z"/>
<path d="M645 740 c-3 -6 1 -7 9 -4 18 7 21 14 7 14 -6 0 -13 -4 -16 -10z"/>
<path d="M1225 741 c-3 -5 -2 -12 3 -15 5 -3 9 1 9 9 0 17 -3 19 -12 6z"/>
<path d="M775 730 c-3 -5 -1 -10 4 -10 6 0 11 5 11 10 0 6 -2 10 -4 10 -3 0
-8 -4 -11 -10z"/>
<path d="M2115 730 c4 -6 11 -8 16 -5 14 9 11 15 -7 15 -8 0 -12 -5 -9 -10z"/>
<path d="M718 723 c-10 -2 -18 -8 -18 -13 0 -4 9 -6 20 -3 11 3 20 9 20 14 0
5 -1 8 -2 8 -2 -1 -11 -3 -20 -6z"/>
<path d="M853 710 c-11 -16 -10 -18 2 -14 8 4 15 12 15 20 0 19 -3 18 -17 -6z"/>
<path d="M886 721 c-4 -5 1 -8 9 -7 21 3 31 16 12 16 -9 0 -18 -4 -21 -9z"/>
<path d="M1195 700 c3 -5 8 -10 11 -10 2 0 4 5 4 10 0 6 -5 10 -11 10 -5 0 -7
-4 -4 -10z"/>
<path d="M1233 698 c-6 -9 -5 -21 3 -37 12 -23 12 -22 11 13 -1 41 -1 41 -14
24z"/>
<path d="M568 684 c-16 -8 -28 -18 -28 -22 0 -13 68 -8 82 6 16 16 -4 16 -21
0 -11 -11 -12 -9 -6 10 7 26 8 26 -27 6z"/>
<path d="M1830 690 c0 -5 7 -10 16 -10 8 0 12 5 9 10 -3 6 -10 10 -16 10 -5 0
-9 -4 -9 -10z"/>
<path d="M905 669 c-4 -6 -5 -12 -2 -15 2 -3 7 2 10 11 7 17 1 20 -8 4z"/>
<path d="M2101 614 c0 -11 3 -14 6 -6 3 7 2 16 -1 19 -3 4 -6 -2 -5 -13z"/>
<path d="M835 580 c-3 -5 -1 -10 4 -10 6 0 11 5 11 10 0 6 -2 10 -4 10 -3 0
-8 -4 -11 -10z"/>
<path d="M1105 580 c-3 -5 -1 -10 4 -10 6 0 11 5 11 10 0 6 -2 10 -4 10 -3 0
-8 -4 -11 -10z"/>
<path d="M2070 582 c0 -5 3 -12 8 -16 12 -13 8 -31 -8 -38 -13 -6 -13 -7 0 -7
8 0 22 3 30 9 12 7 12 12 0 34 -13 25 -30 35 -30 18z"/>
<path d="M338 519 c6 -9 9 -18 7 -21 -3 -3 5 -4 17 -3 37 4 38 4 38 16 0 8 -5
7 -15 -1 -13 -10 -19 -9 -38 6 -13 12 -17 13 -9 3z"/>
<path d="M741 503 c-1 -6 -4 -18 -7 -27 -4 -12 0 -16 16 -16 11 0 18 -4 15
-10 -3 -5 -1 -18 5 -27 9 -15 10 -14 7 8 -1 15 -8 33 -14 40 -5 8 -13 21 -16
29 -3 8 -6 10 -6 3z"/>
<path d="M490 486 c0 -10 -10 -14 -30 -14 -17 1 -36 -4 -43 -11 -9 -10 -8 -11
6 -6 10 5 17 2 17 -5 0 -10 3 -10 14 -1 9 7 17 8 20 2 3 -5 0 -12 -6 -14 -8
-3 -6 -6 5 -6 9 -1 17 6 17 14 0 8 4 15 9 15 6 0 9 9 8 20 -1 23 -17 28 -17 6z"/>
<path d="M534 485 c1 -8 6 -18 11 -22 4 -4 5 -3 1 4 -3 6 2 16 11 22 16 9 16
10 -4 11 -13 0 -20 -6 -19 -15z"/>
<path d="M597 456 c-4 -9 -3 -15 2 -12 10 6 26 -23 22 -39 -1 -5 3 -4 11 3 11
11 10 14 -1 21 -8 5 -10 14 -6 21 5 8 4 11 -3 6 -5 -3 -12 -1 -14 6 -3 7 -7 5
-11 -6z"/>
<path d="M849 454 c-13 -16 -11 -17 15 -12 20 4 34 0 47 -13 18 -18 19 -18 17
4 -1 13 -9 23 -18 23 -8 1 -22 4 -31 8 -10 4 -21 0 -30 -10z"/>
<path d="M1010 461 c0 -5 7 -11 15 -15 8 -3 15 -1 15 3 0 5 -7 11 -15 15 -8 3
-15 1 -15 -3z"/>
<path d="M2054 459 c-3 -6 -2 -15 3 -20 5 -5 9 -1 9 11 0 23 -2 24 -12 9z"/>
<path d="M646 447 c3 -10 9 -15 12 -12 3 3 0 11 -7 18 -10 9 -11 8 -5 -6z"/>
<path d="M677 453 c-4 -3 -7 -16 -6 -27 0 -19 1 -19 10 3 10 24 8 36 -4 24z"/>
<path d="M992 425 c-1 -14 3 -25 8 -25 5 0 9 9 7 20 -5 30 -12 32 -15 5z"/>
<path d="M700 436 c0 -2 7 -6 15 -10 8 -3 15 -1 15 4 0 6 -7 10 -15 10 -8 0
-15 -2 -15 -4z"/>
<path d="M946 431 c-3 -5 1 -11 9 -15 8 -3 15 -1 15 4 0 13 -18 22 -24 11z"/>
<path d="M853 409 c-2 -23 3 -25 10 -4 4 8 3 16 -1 19 -4 3 -9 -4 -9 -15z"/>
<path d="M877 415 c-4 -8 -2 -17 3 -20 6 -4 10 3 10 14 0 25 -6 27 -13 6z"/>
<path d="M340 400 c-13 -8 -12 -10 3 -10 9 0 17 5 17 10 0 12 -1 12 -20 0z"/>
<path d="M2016 393 c-6 -14 -5 -15 5 -6 7 7 10 15 7 18 -3 3 -9 -2 -12 -12z"/>
<path d="M450 393 c0 -17 32 -25 44 -12 8 9 7 10 -5 6 -9 -3 -22 0 -28 6 -8 8
-11 8 -11 0z"/>
<path d="M580 389 c0 -5 5 -7 10 -4 6 3 10 8 10 11 0 2 -4 4 -10 4 -5 0 -10
-5 -10 -11z"/>
<path d="M595 370 c-3 -6 1 -7 9 -4 18 7 21 14 7 14 -6 0 -13 -4 -16 -10z"/>
<path d="M812 364 c10 -10 20 -16 22 -13 3 3 -5 11 -17 18 -21 13 -21 12 -5
-5z"/>
<path d="M865 367 c10 -8 15 -19 11 -25 -3 -6 -1 -14 6 -18 7 -4 10 -4 6 0 -4
5 -3 19 2 32 9 22 7 24 -17 24 -25 0 -26 -1 -8 -13z"/>
<path d="M210 355 c0 -8 4 -15 9 -15 5 0 11 7 15 15 3 9 0 15 -9 15 -8 0 -15
-7 -15 -15z"/>
<path d="M520 349 c0 -5 5 -7 10 -4 6 3 10 8 10 11 0 2 -4 4 -10 4 -5 0 -10
-5 -10 -11z"/>
<path d="M555 350 c-3 -5 -1 -10 4 -10 6 0 11 5 11 10 0 6 -2 10 -4 10 -3 0
-8 -4 -11 -10z"/>
<path d="M927 339 c7 -7 15 -10 18 -7 3 3 -2 9 -12 12 -14 6 -15 5 -6 -5z"/>
<path d="M150 327 c0 -9 -8 -22 -17 -29 -26 -19 -26 -50 -1 -42 14 4 18 2 14
-5 -5 -7 -1 -8 10 -4 12 4 14 8 6 11 -10 3 -10 7 -1 18 6 8 15 14 20 14 5 0
18 9 29 20 15 15 16 20 6 20 -8 0 -18 -5 -21 -11 -5 -7 -14 -4 -26 7 -17 15
-19 15 -19 1z m13 -37 c-10 -9 -22 -15 -26 -13 -5 3 0 13 10 23 10 9 22 15 26
13 5 -3 0 -13 -10 -23z"/>
<path d="M465 330 c-3 -5 -1 -10 4 -10 6 0 11 5 11 10 0 6 -2 10 -4 10 -3 0
-8 -4 -11 -10z"/>
<path d="M560 325 c0 -2 7 -8 15 -15 12 -10 15 -10 15 2 0 8 -7 15 -15 15 -8
0 -15 -1 -15 -2z"/>
<path d="M1852 293 c3 -24 38 -45 38 -22 0 6 6 7 13 3 6 -3 0 5 -15 20 -34 33
-40 33 -36 -1z m35 -9 c-3 -3 -12 -4 -19 -1 -8 3 -5 6 6 6 11 1 17 -2 13 -5z"/>
<path d="M2020 306 c0 -2 7 -9 15 -16 13 -11 14 -10 9 4 -5 14 -24 23 -24 12z"/>
<path d="M1968 283 c7 -3 16 -2 19 1 4 3 -2 6 -13 5 -11 0 -14 -3 -6 -6z"/>
<path d="M392 268 c-15 -15 -15 -28 0 -28 6 0 8 3 5 7 -4 3 -2 12 4 20 14 16
7 17 -9 1z"/>
<path d="M69 266 c0 -1 -2 -9 -4 -19 -2 -13 1 -17 11 -13 8 3 14 0 14 -6 0 -8
3 -9 10 -2 14 14 3 41 -15 41 -8 0 -15 -1 -16 -1z"/>
<path d="M1102 225 c-12 -14 -18 -25 -13 -25 5 0 17 -7 26 -16 14 -15 15 -14
11 12 -3 15 -1 31 5 35 7 4 7 9 2 12 -6 4 -20 -5 -31 -18z"/>
<path d="M1913 237 c4 -10 0 -20 -10 -25 -11 -6 -12 -11 -4 -16 6 -4 11 -2 11
5 0 7 6 5 13 -6 8 -10 19 -15 25 -11 17 10 15 26 -3 26 -8 0 -15 6 -15 14 0 8
-5 18 -12 22 -8 5 -9 2 -5 -9z"/>
<path d="M2120 241 c0 -6 4 -13 10 -16 6 -3 7 1 4 9 -7 18 -14 21 -14 7z"/>
<path d="M390 230 c-8 -5 -11 -10 -6 -10 5 0 3 -7 -4 -15 -11 -13 -10 -14 1
-10 16 6 43 45 32 45 -5 0 -15 -5 -23 -10z"/>
<path d="M920 225 c-11 -13 -10 -14 4 -9 9 3 16 10 16 15 0 13 -6 11 -20 -6z"/>
<path d="M969 223 c-13 -16 -12 -17 4 -4 16 13 21 21 13 21 -2 0 -10 -8 -17
-17z"/>
<path d="M849 228 c-5 -19 -8 -50 -4 -46 7 7 15 48 9 48 -2 0 -4 -1 -5 -2z"/>
<path d="M2310 210 c0 -5 5 -10 11 -10 5 0 7 5 4 10 -3 6 -8 10 -11 10 -2 0
-4 -4 -4 -10z"/>
<path d="M2256 195 c4 -8 11 -15 16 -15 6 0 5 6 -2 15 -7 8 -14 15 -16 15 -2
0 -1 -7 2 -15z"/>
<path d="M1008 193 c9 -3 10 -9 3 -17 -6 -6 -6 -18 -2 -25 7 -10 10 -9 16 8 7
24 0 41 -18 40 -8 0 -8 -2 1 -6z"/>
<path d="M1062 189 c17 -7 25 -15 21 -25 -3 -8 -1 -14 4 -14 20 0 11 38 -10
44 -35 9 -45 5 -15 -5z"/>
<path d="M2021 197 c2 -1 13 -9 24 -17 19 -14 19 -14 6 3 -7 9 -18 17 -24 17
-6 0 -8 -1 -6 -3z"/>
<path d="M200 180 c-8 -5 -12 -12 -9 -15 4 -3 12 1 19 10 14 17 11 19 -10 5z"/>
<path d="M327 183 c-4 -3 -7 -11 -7 -17 0 -6 5 -5 12 2 6 6 9 14 7 17 -3 3 -9
2 -12 -2z"/>
<path d="M2295 180 c-3 -6 1 -7 9 -4 18 7 21 14 7 14 -6 0 -13 -4 -16 -10z"/>
<path d="M901 161 c-10 -6 -9 -10 3 -14 8 -3 18 -2 21 3 8 13 -9 20 -24 11z"/>
<path d="M1810 159 c0 -20 44 -83 48 -70 2 7 -1 17 -8 21 -7 4 -9 13 -6 19 4
6 2 11 -3 11 -6 0 -11 7 -11 15 0 8 -4 15 -10 15 -5 0 -10 -5 -10 -11z"/>
<path d="M1941 162 c-1 -8 -6 -10 -13 -6 -7 4 -4 -2 6 -14 23 -27 30 -23 17 9
-5 13 -10 18 -10 11z"/>
<path d="M411 144 c0 -11 3 -14 6 -6 3 7 2 16 -1 19 -3 4 -6 -2 -5 -13z"/>
<path d="M2200 156 c0 -2 7 -7 16 -10 8 -3 12 -2 9 4 -6 10 -25 14 -25 6z"/>
<path d="M2240 151 c0 -6 4 -13 10 -16 6 -3 7 1 4 9 -7 18 -14 21 -14 7z"/>
<path d="M289 150 c-1 -3 -3 -15 -4 -27 -2 -19 0 -20 23 -10 16 7 20 13 11 16
-8 2 -17 9 -21 15 -4 6 -8 9 -9 6z"/>
<path d="M464 135 c-19 -15 -19 -15 0 -8 15 5 18 3 13 -10 -3 -9 -2 -17 3 -17
5 0 9 11 8 25 -1 14 -3 25 -3 25 -1 0 -10 -7 -21 -15z"/>
<path d="M970 140 c0 -5 5 -10 11 -10 5 0 7 5 4 10 -3 6 -8 10 -11 10 -2 0 -4
-4 -4 -10z"/>
<path d="M1110 139 c0 -5 5 -7 10 -4 6 3 10 8 10 11 0 2 -4 4 -10 4 -5 0 -10
-5 -10 -11z"/>
<path d="M1880 125 c-11 -13 -10 -14 4 -9 9 3 16 10 16 15 0 13 -6 11 -20 -6z"/>
<path d="M1998 120 c-2 -14 -9 -24 -16 -22 -8 1 -11 -2 -7 -8 3 -6 12 -7 18
-3 18 11 39 10 72 -5 l30 -13 -25 20 c-14 11 -31 19 -38 16 -7 -3 -17 5 -21
18 -9 22 -9 22 -13 -3z"/>
<path d="M2056 125 c4 -8 11 -15 16 -15 6 0 5 6 -2 15 -7 8 -14 15 -16 15 -2
0 -1 -7 2 -15z"/>
<path d="M996 121 c-4 -6 -12 -9 -17 -6 -11 7 -11 -3 1 -30 8 -18 9 -18 9 -2
1 10 5 16 10 12 14 -8 21 8 12 24 -6 9 -10 10 -15 2z"/>
<path d="M1050 116 c0 -8 -7 -16 -15 -20 -8 -3 -15 -17 -15 -31 0 -15 4 -24
10 -20 5 3 7 12 3 21 -5 13 21 43 37 44 11 0 10 -54 -1 -61 -7 -4 0 -6 14 -6
16 1 22 6 16 11 -5 6 -9 17 -9 25 0 11 4 10 15 -5 15 -19 15 -19 9 1 -5 19 -5
19 9 2 14 -16 15 -16 15 7 0 22 -3 24 -19 15 -14 -7 -21 -5 -31 11 -15 23 -38
27 -38 6z"/>
<path d="M1773 110 c1 -14 16 -39 34 -56 25 -24 30 -33 20 -43 -9 -10 -3 -12
33 -9 29 2 44 7 43 16 -2 6 2 12 7 12 5 0 10 -5 10 -12 0 -6 3 -8 7 -5 3 4 -1
15 -10 25 -9 10 -15 27 -13 39 4 16 0 20 -15 16 -11 -3 -17 -8 -15 -11 3 -3
-6 -11 -20 -18 -24 -13 -28 -12 -48 13 -11 15 -24 34 -28 42 -5 11 -7 8 -5 -9z
m122 -60 c3 -5 -1 -10 -10 -10 -9 0 -13 5 -10 10 3 6 8 10 10 10 2 0 7 -4 10
-10z m-5 -32 c0 -14 -17 -8 -35 12 -17 19 -17 19 9 7 14 -7 26 -15 26 -19z"/>
<path d="M1975 120 c3 -5 8 -10 11 -10 2 0 4 5 4 10 0 6 -5 10 -11 10 -5 0 -7
-4 -4 -10z"/>
<path d="M2140 121 c0 -6 4 -13 10 -16 6 -3 7 1 4 9 -7 18 -14 21 -14 7z"/>
<path d="M2272 122 c-9 -6 -5 -12 15 -22 35 -17 83 -21 83 -8 0 6 -13 8 -31 4
-25 -5 -32 -2 -36 14 -6 22 -11 24 -31 12z"/>
<path d="M396 103 c-6 -14 -5 -15 5 -6 7 7 10 15 7 18 -3 3 -9 -2 -12 -12z"/>
<path d="M2283 77 c7 -18 -8 -33 -18 -17 -10 16 -25 12 -24 -7 0 -10 3 -13 6
-6 3 10 9 10 26 0 12 -7 25 -16 28 -20 3 -4 12 -1 19 8 7 8 17 15 22 15 7 0 7
-5 0 -13 -6 -7 -8 -17 -4 -22 10 -15 52 -14 52 1 0 18 -17 27 -23 12 -3 -7 -6
0 -6 15 -1 16 -5 26 -11 22 -6 -4 -21 -8 -35 -11 -18 -3 -23 -1 -19 10 3 8 0
17 -7 22 -9 5 -10 2 -6 -9z"/>
<path d="M906 65 c-3 -9 -6 -18 -6 -20 0 -7 41 8 47 18 4 6 1 7 -7 2 -7 -4
-15 -2 -20 5 -5 8 -9 7 -14 -5z"/>
<path d="M1964 69 c15 -9 16 -13 5 -20 -12 -8 -12 -10 0 -18 11 -7 10 -11 -5
-19 -18 -10 -18 -11 2 -9 15 1 20 7 19 27 -1 31 -12 50 -28 50 -7 0 -4 -5 7
-11z"/>
<path d="M455 60 c-4 -6 -11 -8 -16 -5 -5 4 -9 -2 -9 -11 0 -16 2 -15 23 2 12
10 24 20 26 21 2 2 -1 3 -7 3 -6 0 -14 -5 -17 -10z"/>
<path d="M1270 60 c-8 -5 -12 -10 -7 -11 4 -1 10 -2 15 -3 4 0 18 -11 32 -23
13 -13 32 -23 42 -23 18 0 18 1 -2 22 -11 12 -23 19 -26 15 -4 -3 -14 3 -23
13 -12 15 -20 17 -31 10z"/>
<path d="M1002 30 c0 -14 2 -19 5 -12 2 6 2 18 0 25 -3 6 -5 1 -5 -13z"/>
<path d="M2128 44 c-4 -5 0 -18 8 -29 8 -10 14 -13 14 -7 0 10 5 10 20 2 21
-11 24 -6 10 25 -5 11 -9 14 -9 7 -1 -7 -5 -10 -11 -7 -5 3 -10 0 -11 -7 0 -7
-4 -4 -8 6 -4 11 -10 15 -13 10z"/>
<path d="M14 26 c-10 -8 -16 -17 -12 -21 7 -7 48 16 48 27 0 12 -14 9 -36 -6z"/>
<path d="M1527 20 c3 -11 13 -20 22 -19 10 0 11 2 4 6 -7 2 -13 11 -13 19 0 8
-4 14 -9 14 -5 0 -7 -9 -4 -20z"/>
<path d="M2044 28 c-5 -7 -3 -8 6 -3 9 6 12 4 8 -7 -4 -8 -1 -15 7 -15 7 0 10
8 7 19 -5 21 -17 23 -28 6z"/>
<path d="M2220 33 c0 -4 5 -15 10 -23 8 -13 10 -13 10 2 0 9 -4 20 -10 23 -5
3 -10 3 -10 -2z"/>
<path d="M1115 20 c-3 -5 -13 -6 -22 -3 -11 4 -14 3 -9 -5 10 -17 43 -15 43 3
0 17 -3 19 -12 5z"/>
<path d="M2010 23 c5 -2 8 -9 4 -14 -3 -5 0 -9 6 -9 15 0 7 23 -8 26 -7 1 -8
0 -2 -3z"/>
<path d="M2096 15 c4 -8 8 -15 10 -15 2 0 4 7 4 15 0 8 -4 15 -10 15 -5 0 -7
-7 -4 -15z"/>
<path d="M2280 19 c0 -11 25 -22 39 -17 6 1 -1 8 -14 15 -14 6 -25 7 -25 2z"/>
<path d="M274 8 c10 -6 22 -6 26 -2 5 5 -3 10 -18 11 -22 1 -24 0 -8 -9z"/>
</g>
</svg>
